<svg width="1em" height="1em" viewBox="-7 -7 25 25" xmlns="http://www.w3.org/2000/svg">
<path d="M8.30362 14.6698C8.51503 14.4584 8.63379 14.1716 8.63379 13.8725C8.63379 13.5735 8.51503 13.2867 8.30362 13.0753L2.72154 7.49319L8.30362 1.91111C8.50903 1.69843 8.6227 1.41357 8.62013 1.11789C8.61756 0.822216 8.49896 0.539376 8.28988 0.330293C8.0808 0.121209 7.79796 0.00261307 7.50228 4.3869e-05C7.2066 -0.00252533 6.92174 0.111139 6.70906 0.316558L0.329702 6.69591C0.118293 6.90739 -0.000471115 7.19417 -0.000471115 7.49319C-0.000471115 7.79222 0.118293 8.079 0.329702 8.29047L6.70906 14.6698C6.92053 14.8812 7.20731 15 7.50634 15C7.80536 15 8.09214 14.8812 8.30362 14.6698Z" stroke="currentColor" stroke-opacity="0.5"/>
</svg>
