<svg width="51" height="30" viewBox="0 0 51 30" fill="none" xmlns="http://www.w3.org/2000/svg">
<path d="M1.00834 6.075V6.04813L1.0069 6.0213C0.939135 4.76124 1.37291 3.52558 2.21342 2.58437C3.04766 1.65017 4.21528 1.08143 5.46435 1H34.5523C35.8014 1.08143 36.969 1.65017 37.8033 2.58437C38.6438 3.52558 39.0775 4.76124 39.0098 6.0213L39.0083 6.04813V6.075V23.925V23.9519L39.0098 23.9787C39.0775 25.2388 38.6438 26.4744 37.8033 27.4156C36.969 28.3498 35.8014 28.9186 34.5523 29H5.46437C4.21529 28.9186 3.04767 28.3498 2.21342 27.4156C1.37291 26.4744 0.939135 25.2388 1.0069 23.9787L1.00834 23.9519V23.925V6.075ZM46.4477 8.93934C46.729 8.65804 47.1105 8.5 47.5083 8.5C47.9062 8.5 48.2877 8.65804 48.569 8.93934C48.8503 9.22064 49.0083 9.60217 49.0083 10V20C49.0083 20.3978 48.8503 20.7794 48.569 21.0607C48.2877 21.342 47.9062 21.5 47.5083 21.5C47.1105 21.5 46.729 21.342 46.4477 21.0607C46.1664 20.7794 46.0083 20.3978 46.0083 20V10C46.0083 9.60217 46.1664 9.22064 46.4477 8.93934Z" stroke="#228662" stroke-width="2"/>
</svg>
