<svg width="20" height="47" viewBox="0 0 20 47" fill="none" xmlns="http://www.w3.org/2000/svg">
<path d="M5.47443 3.5V3C5.47443 1.89543 6.36986 1 7.47443 1H12.4233C13.5279 1 14.4233 1.89543 14.4233 3V3.5C14.4233 4.60457 13.5279 5.5 12.4233 5.5H12.3874C12.9407 9.33069 16.3072 12.9985 18.5599 16.2519C18.7836 16.575 18.8977 16.9596 18.8977 17.3527V26.5982C18.8977 27.1614 18.648 27.6885 18.2844 28.1187C17.8684 28.611 17.5237 29.1619 17.2618 29.7552C16.8804 30.6195 16.6834 31.5545 16.6834 32.5C16.6834 33.4455 16.8804 34.3805 17.2618 35.2448C17.5237 35.8381 17.8684 36.389 18.2844 36.8813C18.648 37.3115 18.8977 37.8386 18.8977 38.4018V41.5C18.8977 43.9975 16.9066 46 14.4233 46H5.47443C4.28774 46 3.14965 45.5259 2.31053 44.682C1.47141 43.8381 1 42.6935 1 41.5V38.4018C1 37.8386 1.24978 37.3115 1.61331 36.8813C2.02931 36.389 2.37406 35.8381 2.6359 35.2448C3.01731 34.3805 3.21437 33.4455 3.21437 32.5C3.21437 31.5545 3.01731 30.6195 2.6359 29.7552C2.37406 29.1619 2.02931 28.611 1.61331 28.1187C1.24978 27.6885 1 27.1614 1 26.5982V17.3527C1 16.9596 1.1141 16.575 1.33786 16.2519C3.59057 12.9985 6.95705 9.33069 7.5103 5.5H7.47443C6.36986 5.5 5.47443 4.60457 5.47443 3.5Z" stroke="#228662" stroke-width="2"/>
</svg>
