<svg width="48" height="47" viewBox="0 0 48 47" fill="none" xmlns="http://www.w3.org/2000/svg">
<path d="M13.4609 25.2655L39.9351 2.10237C39.9351 2.10237 42.4166 -0.377969 44.8993 2.10237C47.3796 4.58506 44.8993 7.06657 44.8993 7.06657L21.7326 33.5396L13.4609 25.2655Z" stroke="#228662" stroke-width="2" stroke-linejoin="round"/>
<path d="M20.9082 19.4753L27.5267 26.0939" stroke="#228662" stroke-width="2" stroke-linecap="round" stroke-linejoin="round"/>
<path d="M1.00041 32.1348C0.99469 31.4594 1.42066 30.8848 2.03273 30.5992L13.4616 25.2656L21.7333 33.5397L16.4009 44.9673C16.1153 45.5794 15.5407 46.0054 14.8652 45.9997C12.9591 45.9836 8.84866 45.4725 5.18871 41.8126C1.52784 38.1517 1.01654 34.041 1.00041 32.1348Z" stroke="#228662" stroke-width="2" stroke-linejoin="round"/>
<path d="M9.32459 44.2939L10.9789 40.9852M2.70605 37.6754L8.49742 35.1938L2.70605 37.6754Z" stroke="#228662" stroke-width="2" stroke-linecap="round" stroke-linejoin="round"/>
<path d="M30.4204 23.6111L27.5247 26.921L24.629 30.2297M16.7715 22.371L20.0802 19.4753L23.3889 16.5796L16.7715 22.371Z" stroke="#228662" stroke-width="2" stroke-linejoin="round"/>
</svg>
