<svg width="1em" height="1em" viewBox="0 0 227 227" fill="none" xmlns="http://www.w3.org/2000/svg">
<path d="M97.2857 178.357H121.607V194.571H97.2857V178.357ZM121.607 162.143H137.821V178.357H121.607V162.143ZM121.607 129.714H137.821V145.929H121.607V129.714Z" fill="white"/>
<path d="M113.5 0C91.0519 0 69.1078 6.65666 50.4428 19.1282C31.7778 31.5997 17.2303 49.326 8.63972 70.0654C0.0491776 90.8048 -2.1985 113.626 2.18092 135.643C6.56034 157.66 17.3702 177.883 33.2434 193.757C49.1167 209.63 69.3405 220.44 91.3573 224.819C113.374 229.199 136.195 226.951 156.935 218.36C177.674 209.77 195.4 195.222 207.872 176.557C220.343 157.892 227 135.948 227 113.5C226.966 83.4085 214.997 54.5592 193.719 33.2813C172.441 12.0034 143.592 0.0343315 113.5 0V0ZM108.611 16.4575L128.936 57.1229L116.119 89.1786H67.0461L55.615 124.745L78.7366 147.866L70.5727 160.124L34.7473 137.821H19.4167C15.7305 123.856 15.2174 109.243 17.9149 95.0535C20.6124 80.8641 26.4521 67.4585 35.0056 55.8201C43.5591 44.1816 54.6094 34.6056 67.3461 27.7943C80.0828 20.9831 94.1826 17.1094 108.611 16.4575V16.4575ZM25.1808 154.036H30.11L62.0116 173.89C65.5833 176.135 69.8918 176.892 74.0147 175.999C78.1376 175.107 81.7473 172.636 84.0711 169.115L92.2431 156.857C94.3134 153.736 95.2424 149.996 94.8731 146.269C94.5038 142.542 92.8589 139.057 90.2163 136.403L74.0912 120.278L78.8744 105.393H116.119C119.362 105.404 122.533 104.438 125.218 102.62C127.904 100.802 129.979 98.2171 131.174 95.2022L143.991 63.1546C144.843 61.0282 145.235 58.7455 145.141 56.4567C145.047 54.168 144.47 51.9249 143.448 49.8751L127.152 17.2844C142.156 19.3675 156.463 24.9367 168.926 33.5456C181.389 42.1545 191.662 53.5636 198.921 66.8584C206.18 80.1532 210.223 94.9637 210.726 110.103C211.23 125.242 208.179 140.288 201.819 154.036H170.25C165.951 154.04 161.829 155.75 158.79 158.789C155.75 161.829 154.04 165.951 154.036 170.25V201.819C142.444 207.186 129.905 210.207 117.141 210.709C104.376 211.21 91.639 209.181 79.6618 204.74C67.6847 200.299 56.7042 193.533 47.3527 184.831C38.0011 176.129 30.4632 165.663 25.1727 154.036H25.1808ZM170.25 192.358V170.25H192.358C186.221 178.756 178.756 186.221 170.25 192.358V192.358Z" fill="white"/>
</svg>
