<svg width="35" height="47" viewBox="0 0 35 47" fill="none" xmlns="http://www.w3.org/2000/svg">
<path d="M21.3571 40.6429V46M12.7857 40.6429V46M21.3571 6.35714V1M12.7857 6.35714V1M6.35714 23.5H1M33.1429 23.5H27.7857M6.35714 11.7143H1M33.1429 11.7143H27.7857M6.35714 35.2857H1M33.1429 35.2857H27.7857M6.35714 39.3571V7.64286C6.35714 7.30186 6.4926 6.97484 6.73372 6.73372C6.97484 6.4926 7.30186 6.35714 7.64286 6.35714H26.5C26.6688 6.35714 26.836 6.3904 26.992 6.45501C27.148 6.51963 27.2897 6.61433 27.4091 6.73372C27.5285 6.85311 27.6232 6.99485 27.6878 7.15084C27.7525 7.30683 27.7857 7.47401 27.7857 7.64286V39.3571C27.7857 39.526 27.7525 39.6932 27.6878 39.8492C27.6232 40.0052 27.5285 40.1469 27.4091 40.2663C27.2897 40.3857 27.148 40.4804 26.992 40.545C26.836 40.6096 26.6688 40.6429 26.5 40.6429H7.64286C7.30186 40.6429 6.97484 40.5074 6.73372 40.2663C6.4926 40.0252 6.35714 39.6981 6.35714 39.3571Z" stroke="#228662" stroke-width="2" stroke-linecap="round" stroke-linejoin="round"/>
</svg>
