<svg width="20" height="20" viewBox="0 0 20 20" fill="none" xmlns="http://www.w3.org/2000/svg">
<mask id="path-1-inside-1_33_7412" fill="white">
<path d="M17.0465 2.95354C16.1228 2.0207 15.0238 1.27956 13.8128 0.772706C12.6018 0.265849 11.3026 0.00326128 9.98984 3.01863e-05C8.67705 -0.00320091 7.37656 0.252988 6.16309 0.753878C4.94961 1.25477 3.84706 1.99049 2.91877 2.91877C1.99049 3.84706 1.25477 4.94961 0.753878 6.16309C0.252988 7.37656 -0.00320091 8.67705 3.01863e-05 9.98984C0.00326128 11.3026 0.265849 12.6018 0.772706 13.8128C1.27956 15.0238 2.0207 16.1228 2.95354 17.0465C3.87725 17.9793 4.97616 18.7204 6.18716 19.2273C7.39816 19.7342 8.69737 19.9967 10.0102 20C11.3229 20.0032 12.6234 19.747 13.8369 19.2461C15.0504 18.7452 16.1529 18.0095 17.0812 17.0812C18.0095 16.1529 18.7452 15.0504 19.2461 13.8369C19.747 12.6234 20.0032 11.3229 20 10.0102C19.9967 8.69737 19.7342 7.39816 19.2273 6.18716C18.7204 4.97616 17.9793 3.87725 17.0465 2.95354ZM7.15855 10.186C7.12079 9.60823 7.26006 9.03271 7.55778 8.53616C7.85549 8.03961 8.29751 7.64562 8.82489 7.40673C9.35227 7.16783 9.93995 7.09539 10.5096 7.19906C11.0792 7.30273 11.6036 7.57759 12.013 7.98698C12.4224 8.39637 12.6973 8.92084 12.8009 9.49044C12.9046 10.0601 12.8322 10.6477 12.5933 11.1751C12.3544 11.7025 11.9604 12.1445 11.4638 12.4422C10.9673 12.7399 10.3918 12.8792 9.81404 12.8414C9.12479 12.7957 8.47559 12.5013 7.98715 12.0128C7.49871 11.5244 7.20426 10.8752 7.15855 10.186ZM17.8357 7.22128L13.5484 7.48109C13.519 7.48263 13.4898 7.477 13.4631 7.46467C13.4364 7.45235 13.4132 7.4337 13.3953 7.41035C13.1644 7.10776 12.894 6.8374 12.5914 6.60646C12.5681 6.58862 12.5494 6.56536 12.5371 6.5387C12.5248 6.51203 12.5191 6.48275 12.5207 6.45342L12.7805 2.16611C12.7821 2.13816 12.7902 2.11099 12.8043 2.08679C12.8184 2.06259 12.8379 2.04205 12.8614 2.02684C12.8849 2.01163 12.9117 2.00217 12.9395 1.99923C12.9673 1.9963 12.9955 1.99997 13.0216 2.00995C14.1535 2.44111 15.1813 3.10685 16.0376 3.96345C16.8939 4.82006 17.5593 5.84813 17.99 6.98015C18 7.0063 18.0037 7.03444 18.0008 7.06227C17.9978 7.0901 17.9884 7.11685 17.9732 7.14034C17.9579 7.16384 17.9374 7.18341 17.9132 7.19747C17.889 7.21153 17.8618 7.21969 17.8339 7.22128H17.8357ZM7.22128 2.16611L7.48109 6.45342C7.48263 6.48275 7.477 6.51203 7.46467 6.5387C7.45235 6.56536 7.4337 6.58862 7.41035 6.60646C7.10776 6.8374 6.8374 7.10776 6.60646 7.41035C6.58862 7.4337 6.56536 7.45235 6.5387 7.46467C6.51203 7.477 6.48275 7.48263 6.45342 7.48109L2.16611 7.22128C2.13816 7.21969 2.11099 7.21153 2.08679 7.19747C2.06259 7.18341 2.04205 7.16384 2.02684 7.14034C2.01163 7.11685 2.00217 7.0901 1.99923 7.06227C1.9963 7.03444 1.99997 7.0063 2.00995 6.98015C2.4409 5.84796 3.10655 4.81977 3.96316 3.96316C4.81977 3.10655 5.84796 2.4409 6.98015 2.00995C7.0063 1.99997 7.03444 1.9963 7.06227 1.99923C7.0901 2.00217 7.11685 2.01163 7.14034 2.02684C7.16384 2.04205 7.18341 2.06259 7.19747 2.08679C7.21153 2.11099 7.21969 2.13816 7.22128 2.16611ZM2.16611 12.7787L6.45342 12.5189C6.48275 12.5174 6.51203 12.523 6.5387 12.5353C6.56536 12.5477 6.58862 12.5663 6.60646 12.5896C6.8374 12.8922 7.10776 13.1626 7.41035 13.3935C7.4337 13.4114 7.45235 13.4346 7.46467 13.4613C7.477 13.488 7.48263 13.5172 7.48109 13.5466L7.22128 17.8339C7.21969 17.8618 7.21153 17.889 7.19747 17.9132C7.18341 17.9374 7.16384 17.9579 7.14034 17.9732C7.11685 17.9884 7.0901 17.9978 7.06227 18.0008C7.03444 18.0037 7.0063 18 6.98015 17.99C5.84796 17.5591 4.81977 16.8935 3.96316 16.0368C3.10655 15.1802 2.4409 14.152 2.00995 13.0198C1.99997 12.9937 1.9963 12.9656 1.99923 12.9377C2.00217 12.9099 2.01163 12.8831 2.02684 12.8597C2.04205 12.8362 2.06259 12.8166 2.08679 12.8025C2.11099 12.7885 2.13816 12.7803 2.16611 12.7787ZM12.7787 17.8339L12.5189 13.5466C12.5174 13.5172 12.523 13.488 12.5353 13.4613C12.5477 13.4346 12.5663 13.4114 12.5896 13.3935C12.8922 13.1626 13.1626 12.8922 13.3935 12.5896C13.4114 12.5663 13.4346 12.5477 13.4613 12.5353C13.488 12.523 13.5172 12.5174 13.5466 12.5189L17.8339 12.7787C17.8618 12.7803 17.889 12.7885 17.9132 12.8025C17.9374 12.8166 17.9579 12.8362 17.9732 12.8597C17.9884 12.8831 17.9978 12.9099 18.0008 12.9377C18.0037 12.9656 18 12.9937 17.99 13.0198C17.5591 14.152 16.8935 15.1802 16.0368 16.0368C15.1802 16.8935 14.152 17.5591 13.0198 17.99C12.9937 18 12.9656 18.0037 12.9377 18.0008C12.9099 17.9978 12.8831 17.9884 12.8597 17.9732C12.8362 17.9579 12.8166 17.9374 12.8025 17.9132C12.7885 17.889 12.7803 17.8618 12.7787 17.8339Z"/>
</mask>
<path d="M17.0465 2.95354C16.1228 2.0207 15.0238 1.27956 13.8128 0.772706C12.6018 0.265849 11.3026 0.00326128 9.98984 3.01863e-05C8.67705 -0.00320091 7.37656 0.252988 6.16309 0.753878C4.94961 1.25477 3.84706 1.99049 2.91877 2.91877C1.99049 3.84706 1.25477 4.94961 0.753878 6.16309C0.252988 7.37656 -0.00320091 8.67705 3.01863e-05 9.98984C0.00326128 11.3026 0.265849 12.6018 0.772706 13.8128C1.27956 15.0238 2.0207 16.1228 2.95354 17.0465C3.87725 17.9793 4.97616 18.7204 6.18716 19.2273C7.39816 19.7342 8.69737 19.9967 10.0102 20C11.3229 20.0032 12.6234 19.747 13.8369 19.2461C15.0504 18.7452 16.1529 18.0095 17.0812 17.0812C18.0095 16.1529 18.7452 15.0504 19.2461 13.8369C19.747 12.6234 20.0032 11.3229 20 10.0102C19.9967 8.69737 19.7342 7.39816 19.2273 6.18716C18.7204 4.97616 17.9793 3.87725 17.0465 2.95354ZM7.15855 10.186C7.12079 9.60823 7.26006 9.03271 7.55778 8.53616C7.85549 8.03961 8.29751 7.64562 8.82489 7.40673C9.35227 7.16783 9.93995 7.09539 10.5096 7.19906C11.0792 7.30273 11.6036 7.57759 12.013 7.98698C12.4224 8.39637 12.6973 8.92084 12.8009 9.49044C12.9046 10.0601 12.8322 10.6477 12.5933 11.1751C12.3544 11.7025 11.9604 12.1445 11.4638 12.4422C10.9673 12.7399 10.3918 12.8792 9.81404 12.8414C9.12479 12.7957 8.47559 12.5013 7.98715 12.0128C7.49871 11.5244 7.20426 10.8752 7.15855 10.186ZM17.8357 7.22128L13.5484 7.48109C13.519 7.48263 13.4898 7.477 13.4631 7.46467C13.4364 7.45235 13.4132 7.4337 13.3953 7.41035C13.1644 7.10776 12.894 6.8374 12.5914 6.60646C12.5681 6.58862 12.5494 6.56536 12.5371 6.5387C12.5248 6.51203 12.5191 6.48275 12.5207 6.45342L12.7805 2.16611C12.7821 2.13816 12.7902 2.11099 12.8043 2.08679C12.8184 2.06259 12.8379 2.04205 12.8614 2.02684C12.8849 2.01163 12.9117 2.00217 12.9395 1.99923C12.9673 1.9963 12.9955 1.99997 13.0216 2.00995C14.1535 2.44111 15.1813 3.10685 16.0376 3.96345C16.8939 4.82006 17.5593 5.84813 17.99 6.98015C18 7.0063 18.0037 7.03444 18.0008 7.06227C17.9978 7.0901 17.9884 7.11685 17.9732 7.14034C17.9579 7.16384 17.9374 7.18341 17.9132 7.19747C17.889 7.21153 17.8618 7.21969 17.8339 7.22128H17.8357ZM7.22128 2.16611L7.48109 6.45342C7.48263 6.48275 7.477 6.51203 7.46467 6.5387C7.45235 6.56536 7.4337 6.58862 7.41035 6.60646C7.10776 6.8374 6.8374 7.10776 6.60646 7.41035C6.58862 7.4337 6.56536 7.45235 6.5387 7.46467C6.51203 7.477 6.48275 7.48263 6.45342 7.48109L2.16611 7.22128C2.13816 7.21969 2.11099 7.21153 2.08679 7.19747C2.06259 7.18341 2.04205 7.16384 2.02684 7.14034C2.01163 7.11685 2.00217 7.0901 1.99923 7.06227C1.9963 7.03444 1.99997 7.0063 2.00995 6.98015C2.4409 5.84796 3.10655 4.81977 3.96316 3.96316C4.81977 3.10655 5.84796 2.4409 6.98015 2.00995C7.0063 1.99997 7.03444 1.9963 7.06227 1.99923C7.0901 2.00217 7.11685 2.01163 7.14034 2.02684C7.16384 2.04205 7.18341 2.06259 7.19747 2.08679C7.21153 2.11099 7.21969 2.13816 7.22128 2.16611ZM2.16611 12.7787L6.45342 12.5189C6.48275 12.5174 6.51203 12.523 6.5387 12.5353C6.56536 12.5477 6.58862 12.5663 6.60646 12.5896C6.8374 12.8922 7.10776 13.1626 7.41035 13.3935C7.4337 13.4114 7.45235 13.4346 7.46467 13.4613C7.477 13.488 7.48263 13.5172 7.48109 13.5466L7.22128 17.8339C7.21969 17.8618 7.21153 17.889 7.19747 17.9132C7.18341 17.9374 7.16384 17.9579 7.14034 17.9732C7.11685 17.9884 7.0901 17.9978 7.06227 18.0008C7.03444 18.0037 7.0063 18 6.98015 17.99C5.84796 17.5591 4.81977 16.8935 3.96316 16.0368C3.10655 15.1802 2.4409 14.152 2.00995 13.0198C1.99997 12.9937 1.9963 12.9656 1.99923 12.9377C2.00217 12.9099 2.01163 12.8831 2.02684 12.8597C2.04205 12.8362 2.06259 12.8166 2.08679 12.8025C2.11099 12.7885 2.13816 12.7803 2.16611 12.7787ZM12.7787 17.8339L12.5189 13.5466C12.5174 13.5172 12.523 13.488 12.5353 13.4613C12.5477 13.4346 12.5663 13.4114 12.5896 13.3935C12.8922 13.1626 13.1626 12.8922 13.3935 12.5896C13.4114 12.5663 13.4346 12.5477 13.4613 12.5353C13.488 12.523 13.5172 12.5174 13.5466 12.5189L17.8339 12.7787C17.8618 12.7803 17.889 12.7885 17.9132 12.8025C17.9374 12.8166 17.9579 12.8362 17.9732 12.8597C17.9884 12.8831 17.9978 12.9099 18.0008 12.9377C18.0037 12.9656 18 12.9937 17.99 13.0198C17.5591 14.152 16.8935 15.1802 16.0368 16.0368C15.1802 16.8935 14.152 17.5591 13.0198 17.99C12.9937 18 12.9656 18.0037 12.9377 18.0008C12.9099 17.9978 12.8831 17.9884 12.8597 17.9732C12.8362 17.9579 12.8166 17.9374 12.8025 17.9132C12.7885 17.889 12.7803 17.8618 12.7787 17.8339Z" stroke="#0D2601" stroke-width="2" stroke-linejoin="round" mask="url(#path-1-inside-1_33_7412)"/>
</svg>
