<svg width="64" height="45" viewBox="0 0 64 45" fill="none" xmlns="http://www.w3.org/2000/svg">
<path d="M4.87929 6.61613V5.86613H4.12929H3.32593C1.93214 5.86613 0.75 4.56098 0.75 3.30873C0.75 2.05609 1.93251 0.75 3.32593 0.75H60.2016C61.5962 0.75 62.7775 2.05589 62.7775 3.30873C62.7775 4.56118 61.5965 5.86613 60.2016 5.86613H59.479H58.729V6.61613V11.2336C58.729 11.9239 58.1693 12.4836 57.479 12.4836H6.12929C5.43894 12.4836 4.87929 11.9239 4.87929 11.2336V6.61613ZM13.1396 37.6299H12.3896V38.3799V43.2901C12.3896 43.6645 12.3049 43.9233 12.2045 44.0662C12.1274 44.176 12.0243 44.25 11.8108 44.25H5.16161C5.09956 44.25 5.06029 44.2434 5.03818 44.2379C5.02723 44.2351 5.02022 44.2325 5.01633 44.2309C5.01249 44.2293 5.01087 44.2283 5.01073 44.2282L5.01065 44.2281L5.01042 44.2278L5.00842 44.2256C5.00482 44.2213 4.99533 44.2087 4.98291 44.1819C4.95584 44.1235 4.92635 44.0233 4.90629 43.8614C4.88652 43.7019 4.87929 43.513 4.87929 43.2901V35.5953V31.1168C4.87929 30.4264 5.43893 29.8668 6.12929 29.8668H57.4777C58.168 29.8668 58.7277 30.4264 58.7277 31.1168V43.2901C58.7277 43.7377 58.6743 44.0078 58.6007 44.1468C58.5723 44.2005 58.5514 44.2142 58.5426 44.2194C58.5325 44.2254 58.4866 44.25 58.3659 44.25H51.7154C51.595 44.25 51.5292 44.2255 51.4938 44.2062C51.4586 44.187 51.4211 44.1555 51.3821 44.0944C51.2933 43.9551 51.2187 43.6915 51.2187 43.2901V38.3799V37.6299H50.4687H13.1396ZM29.3515 8.2427C29.3515 9.5801 30.4109 10.7026 31.7638 10.7026C33.1184 10.7026 34.1761 9.57971 34.1761 8.2427C34.1761 6.90569 33.1184 5.78275 31.7638 5.78275C30.4109 5.78275 29.3515 6.9053 29.3515 8.2427ZM6.12929 25.7172C5.43894 25.7172 4.87929 25.1575 4.87929 24.4672V17.8819C4.87929 17.1915 5.43893 16.6319 6.12929 16.6319H57.479C58.1693 16.6319 58.729 17.1915 58.729 17.8819V24.4672C58.729 25.1575 58.1693 25.7172 57.479 25.7172H6.12929ZM34.1761 21.0634C34.1761 19.7256 33.1176 18.6047 31.7638 18.6047L30.1015 21.0634H29.3515C29.3515 21.0637 29.3515 21.0641 29.3515 21.0644C29.352 22.403 30.4116 23.5233 31.7638 23.5233C33.118 23.5233 34.1761 22.4021 34.1761 21.0634ZM34.1761 33.8853C34.1761 32.5493 33.118 31.4267 31.7638 31.4267L30.1015 33.8853H29.3515C29.3515 33.8857 29.3515 33.886 29.3515 33.8864C29.352 35.2275 30.4127 36.344 31.7638 36.344C33.1169 36.344 34.1761 35.2265 34.1761 33.8853Z" stroke="#228662" stroke-width="1.5"/>
</svg>
