<svg width="15" height="18" viewBox="0 0 15 18" fill="none" xmlns="http://www.w3.org/2000/svg">
<path d="M12.7183 11.3143L12.7189 11.3124C13.6448 10.0926 14.1451 8.6028 14.1429 7.07143C14.1407 5.19665 13.3949 3.39929 12.0692 2.07362C10.7436 0.747945 8.94622 0.00221173 7.07144 0M12.7183 11.3143L12.7133 11.3105L12.321 11.0107L12.321 11.0108L12.3209 11.0108L12.3208 11.0109L12.3204 11.0114L12.3188 11.0135L12.3127 11.0215L12.2906 11.0505L12.2704 11.0768M12.7183 11.3143C12.7183 11.3143 12.5248 11.5676 12.4965 11.6016M12.7183 11.3143L12.2439 11.1562L12.2446 11.1543L12.2704 11.0768M12.2704 11.0768L12.2707 11.0759L12.3207 11.01C13.1804 9.87745 13.6449 8.49409 13.6429 7.07215L13.6429 7.07202C13.6408 5.32964 12.9477 3.65922 11.7157 2.42717C10.4838 1.19526 8.8136 0.502212 7.07144 0.5M12.2704 11.0768L12.2215 11.1406L12.1479 11.2361L12.1209 11.2707C12.1159 11.2771 12.1131 11.2806 12.112 11.282M7.07144 0.5C7.07163 0.5 7.07183 0.5 7.07203 0.5L7.07144 0M7.07144 0.5C7.07124 0.5 7.07104 0.5 7.07085 0.5L7.07144 0M7.07144 0.5C5.32927 0.502211 3.65909 1.19526 2.42718 2.42717C1.19513 3.65922 0.502063 5.32964 0.500007 7.07202L0.500007 7.07216C0.497922 8.49477 0.962604 9.87878 1.82277 11.0119M7.07144 0C5.19666 0.00221173 3.39929 0.747945 2.07362 2.07362C0.747953 3.39929 0.00221925 5.19665 7.52328e-06 7.07143C-0.00223791 8.6035 0.498209 10.094 1.42458 11.3143M1.82277 11.0119L1.82276 11.0119L1.42458 11.3143M1.82277 11.0119C1.82279 11.0119 1.82281 11.0119 1.82282 11.012M1.82277 11.0119L1.82278 11.0119L1.82282 11.012M1.42458 11.3143L1.82282 11.012M1.42458 11.3143C1.42458 11.3143 1.61744 11.5682 1.64894 11.6049L6.74366 17.6134L7.07143 17.2269M1.82282 11.012L1.82288 11.012L1.82327 11.0125L1.82484 11.0146L1.83091 11.0226L1.85293 11.0515L1.92183 11.1417C1.94764 11.1754 1.97389 11.2095 1.99536 11.2371C2.01171 11.2582 2.02141 11.2704 2.0257 11.2758C2.02807 11.2788 2.0288 11.2797 2.0281 11.2789L2.03031 11.2815L2.0303 11.2815L7.07143 17.2269M7.07143 17.2269L12.1118 11.2823M7.07143 17.2269L7.3992 17.6134L12.4965 11.6016M12.1118 11.2823L12.112 11.282M12.1118 11.2823L12.4965 11.6016M12.1118 11.2823L12.112 11.282M12.4965 11.6016L12.1151 11.2783L12.112 11.282M10.1429 7.07205V7.07143C10.1429 6.46396 9.96273 5.87013 9.62524 5.36503C9.28774 4.85994 8.80805 4.46627 8.24682 4.2338C7.68559 4.00133 7.06803 3.9405 6.47223 4.05902C5.87643 4.17753 5.32915 4.47005 4.89961 4.8996C4.47006 5.32915 4.17754 5.87642 4.05902 6.47222C3.94051 7.06802 4.00134 7.68558 4.23381 8.24681C4.46627 8.80804 4.85995 9.28773 5.36504 9.62523C5.87014 9.96272 6.46396 10.1429 7.07144 10.1429H7.07206C7.88618 10.1418 8.66666 9.81798 9.24232 9.24232C9.81799 8.66665 10.1418 7.88617 10.1429 7.07205Z" stroke="#0D2601" stroke-opacity="0.5"/>
</svg>
