<svg width="32" height="32" viewBox="0 0 32 32" fill="none" xmlns="http://www.w3.org/2000/svg">
<path d="M1 6.99998C1 5.40869 1.63214 3.88257 2.75735 2.75735C3.88257 1.63214 5.40869 1 6.99998 1H24.9999C26.5912 1 28.1174 1.63214 29.2426 2.75735C30.3678 3.88257 30.9999 5.40869 30.9999 6.99998V24.9999C30.9999 26.5912 30.3678 28.1174 29.2426 29.2426C28.1174 30.3678 26.5912 30.9999 24.9999 30.9999H6.99998C5.40869 30.9999 3.88257 30.3678 2.75735 29.2426C1.63214 28.1174 1 26.5912 1 24.9999V6.99998Z" stroke="#0D2601" stroke-opacity="0.5" stroke-width="1.5" stroke-linecap="round" stroke-linejoin="round"/>
<path d="M10.75 14.5C12.8211 14.5 14.5 12.8211 14.5 10.75C14.5 8.67893 12.8211 7 10.75 7C8.67893 7 7 8.67893 7 10.75C7 12.8211 8.67893 14.5 10.75 14.5Z" stroke="#0D2601" stroke-opacity="0.5" stroke-width="1.5" stroke-linecap="round" stroke-linejoin="round"/>
<path d="M19.789 16.9317L7 31.0002H25.1995C26.7378 31.0002 28.2132 30.389 29.301 29.3012C30.3888 28.2134 30.9999 26.7381 30.9999 25.1997V25.0002C30.9999 24.3012 30.7374 24.0327 30.2649 23.5152L24.22 16.9227C23.9382 16.6154 23.5955 16.3701 23.2137 16.2027C22.8319 16.0352 22.4194 15.9491 22.0025 15.95C21.5856 15.9508 21.1734 16.0385 20.7923 16.2076C20.4112 16.3766 20.0695 16.6232 19.789 16.9317V16.9317Z" stroke="#0D2601" stroke-opacity="0.5" stroke-width="1.5" stroke-linecap="round" stroke-linejoin="round"/>
</svg>
