<svg width="36" height="45" viewBox="0 0 36 45" fill="none" xmlns="http://www.w3.org/2000/svg">
<path d="M6.75 3.5H3.25V1H32.75V3.5H29.25H28.25V4.5V11.25V12.25H29.25C30.775 12.25 32.2375 12.8558 33.3159 13.9341C34.3942 15.0125 35 16.475 35 18V42.75C35 43.0815 34.8683 43.3995 34.6339 43.6339C34.3995 43.8683 34.0815 44 33.75 44H2.25C1.91848 44 1.60054 43.8683 1.36612 43.6339C1.1317 43.3995 1 43.0815 1 42.75V18C1 16.475 1.6058 15.0125 2.68414 13.9341C3.76247 12.8558 5.22501 12.25 6.75 12.25H7.75V11.25V4.5V3.5H6.75Z" stroke="#228662" stroke-width="2"/>
<line x1="19" y1="21" x2="19" y2="35" stroke="#228662" stroke-width="2" stroke-linecap="round"/>
<line x1="11" y1="27" x2="26" y2="27" stroke="#228662" stroke-width="2" stroke-linecap="round"/>
</svg>
