<svg width="55" height="47" viewBox="0 0 55 47" fill="none" xmlns="http://www.w3.org/2000/svg">
<path d="M25.8433 1C25.8432 1 25.8431 1.00014 25.8432 1.00021L41.2686 13.221C41.5844 13.4712 41.8173 13.811 41.9367 14.1958L44.2126 21.5282C44.5663 22.6679 43.8498 23.8617 42.6777 24.0856L30.9755 26.321C30.3567 26.4392 29.7183 26.2589 29.2527 25.8344L13.8185 11.7618C13.163 11.1642 12.9795 10.2061 13.3678 9.40856L16.1624 3.66771C16.3024 3.38009 16.5645 3.17082 16.876 3.09795L25.8433 1.00023C25.8434 1.0002 25.8434 1 25.8433 1V1Z" stroke="#228662" stroke-width="2" stroke-linejoin="round"/>
<path d="M16.3818 3.21289L31.6623 16.3034" stroke="#228662" stroke-width="2" stroke-linecap="round"/>
<path d="M29.6259 33.2421L32.0502 40.7502C32.4187 41.8916 31.7067 43.0984 30.5295 43.3278L17.8506 45.7989C17.2048 45.9247 16.5384 45.7249 16.0684 45.2645L1.95463 31.4379C1.37678 30.8718 1.19684 30.0133 1.49873 29.2628L4.11607 22.7561C4.35949 22.151 4.88271 21.7026 5.51798 21.5546L11.9469 20.0575M38.7478 14.2181L32.3443 15.5247C31.9341 15.6084 31.6195 15.9387 31.5558 16.3524L30.4967 23.2345C30.346 24.2133 31.5571 24.7921 32.2241 24.0602L39.6869 15.8715C40.3386 15.1563 39.6959 14.0246 38.7478 14.2181Z" stroke="#228662" stroke-width="2" stroke-linecap="round" stroke-linejoin="round"/>
<path d="M4.50488 21.7905L19.1144 35.6078" stroke="#228662" stroke-width="2" stroke-linecap="round"/>
<path d="M16.8184 45.2993L19.3887 34.7546L29.6225 33.271" stroke="#228662" stroke-width="2" stroke-linecap="round" stroke-linejoin="round"/>
<path d="M43.1177 31.3127L42.2456 38.3843C42.0791 39.7338 43.2788 40.8524 44.6133 40.5922L52.3609 39.0814C53.5123 38.8569 54.2241 37.6942 53.9005 36.5666L52.3556 31.1837C52.064 30.1674 51.0317 29.5537 49.9996 29.783L43.119 31.311C43.1183 31.3112 43.1177 31.3119 43.1177 31.3127V31.3127Z" stroke="#228662" stroke-width="2" stroke-linejoin="round"/>
</svg>
