<svg width="51" height="45" viewBox="0 0 51 45" fill="none" xmlns="http://www.w3.org/2000/svg">
<path d="M44.9993 23.1738C44.9942 22.7445 44.8215 22.3342 44.5179 22.0305L22.956 0.468606C22.6552 0.168523 22.2477 0 21.8228 0C21.3979 0 20.9903 0.168523 20.6895 0.468606L12.6464 8.5117L7.39131 3.25661C7.08608 2.98004 6.68618 2.83144 6.2744 2.84158C5.86263 2.85172 5.47053 3.01982 5.17927 3.31108C4.88801 3.60233 4.71992 3.99444 4.70978 4.40621C4.69964 4.81798 4.84824 5.21789 5.12481 5.52312L10.3799 10.7782L1.41415 19.764C0.965987 20.2095 0.610329 20.7392 0.367635 21.3227C0.124941 21.9062 0 22.5319 0 23.1638C0 23.7957 0.124941 24.4214 0.367635 25.0049C0.610329 25.5883 0.965987 26.118 1.41415 26.5635L18.423 43.5924C19.3288 44.4939 20.5548 45 21.8328 45C23.1108 45 24.3367 44.4939 25.2426 43.5924L44.5179 24.297C44.8203 24.0008 44.9933 23.5971 44.9993 23.1738ZM22.956 41.3259C22.6527 41.6212 22.2461 41.7864 21.8228 41.7864C21.3994 41.7864 20.9928 41.6212 20.6895 41.3259L3.68066 24.297C3.38058 23.9962 3.21205 23.5887 3.21205 23.1638C3.21205 22.7389 3.38058 22.3313 3.68066 22.0305L12.6464 13.0648L18.6035 19.0018C17.9614 20.1884 17.7679 21.5665 18.0585 22.884C18.349 24.2016 19.1041 25.3705 20.1857 26.177C21.2674 26.9834 22.6031 27.3736 23.9488 27.2761C25.2945 27.1786 26.56 26.5999 27.514 25.6458C28.4681 24.6918 29.0468 23.4263 29.1443 22.0806C29.2418 20.735 28.8516 19.3992 28.0452 18.3176C27.2387 17.2359 26.0698 16.4808 24.7522 16.1903C23.4347 15.8997 22.0566 16.0932 20.87 16.7353L14.933 10.7782L21.8328 3.8784L41.1282 23.1738L22.956 41.3259ZM23.5377 19.2626C24.1758 19.2653 24.7875 19.5173 25.2426 19.9646C25.5784 20.3015 25.8068 20.7304 25.899 21.1971C25.9912 21.6638 25.943 22.1473 25.7606 22.5866C25.5782 23.0259 25.2697 23.4013 24.874 23.6654C24.4784 23.9295 24.0134 24.0705 23.5377 24.0705C23.062 24.0705 22.597 23.9295 22.2013 23.6654C21.8057 23.4013 21.4972 23.0259 21.3148 22.5866C21.1324 22.1473 21.0842 21.6638 21.1764 21.1971C21.2686 20.7304 21.497 20.3015 21.8328 19.9646C22.2878 19.5173 22.8996 19.2653 23.5377 19.2626ZM45.5409 30.1539C45.2342 29.8573 44.8242 29.6915 44.3976 29.6915C43.971 29.6915 43.561 29.8573 43.2543 30.1539C43.0738 30.3544 38.7815 34.7069 38.7815 39.3202C38.7815 40.8097 39.3732 42.2382 40.4264 43.2914C41.4796 44.3446 42.9081 44.9363 44.3976 44.9363C45.8871 44.9363 47.3156 44.3446 48.3688 43.2914C49.422 42.2382 50.0137 40.8097 50.0137 39.3202C50.0137 34.7069 45.7214 30.3544 45.5409 30.1539ZM44.3976 41.7271C43.7592 41.7271 43.147 41.4735 42.6956 41.0221C42.2443 40.5707 41.9907 39.9585 41.9907 39.3202C41.9907 37.3746 43.2944 35.1883 44.3976 33.7442C45.5008 35.1883 46.8045 37.3545 46.8045 39.3202C46.8045 39.9585 46.5509 40.5707 46.0995 41.0221C45.6481 41.4735 45.0359 41.7271 44.3976 41.7271Z" fill="#228662"/>
</svg>
