<svg width="38" height="47" viewBox="0 0 38 47" fill="none" xmlns="http://www.w3.org/2000/svg">
<path d="M1 5.5V41.5C1 42.6935 1.47411 43.8381 2.31802 44.682C3.16193 45.5259 4.30653 46 5.5 46H32.5C33.6935 46 34.8381 45.5259 35.682 44.682C36.5259 43.8381 37 42.6935 37 41.5V15.2695C36.9999 14.67 36.8801 14.0766 36.6475 13.5241C36.4149 12.9715 36.0742 12.471 35.6455 12.052L25.6555 2.2825C24.8148 1.46048 23.6858 1.00015 22.51 1H5.5C4.30653 1 3.16193 1.47411 2.31802 2.31802C1.47411 3.16193 1 4.30653 1 5.5V5.5Z" stroke="#228662" stroke-width="2" stroke-linecap="round" stroke-linejoin="round"/>
<path d="M23.5 1V10C23.5 11.1935 23.9741 12.3381 24.818 13.182C25.6619 14.0259 26.8065 14.5 28 14.5H37" stroke="#228662" stroke-width="2" stroke-linejoin="round"/>
</svg>
