<svg width="368" height="304" viewBox="0 0 368 304" fill="none" xmlns="http://www.w3.org/2000/svg">
<path d="M270.737 35.4692C264.942 32.3105 262.283 34.9466 260.2 32.3105C258.117 29.6745 265.995 22.8268 250.209 15.9792C250.209 15.9792 249.156 1.23101 227.553 0.700722C205.949 0.170434 211.752 15.4566 205.957 19.1455C200.162 22.8345 198.579 17.0398 192.784 20.7287C186.989 24.4177 189.61 31.7649 184.868 32.8408C180.126 33.9168 173.801 28.099 168.007 31.7879C162.212 35.4769 162.212 38.6356 159.553 38.6356C156.894 38.6356 151.644 36.5298 148.486 38.6356C145.327 40.7413 141.638 43.3774 141.638 43.3774H274.956C274.956 43.3774 276.531 38.6356 270.737 35.4692Z" stroke="#0D2601" stroke-linecap="round" stroke-linejoin="round"/>
<path d="M191.893 33.3018C191.137 33.7279 190.351 34.0978 189.541 34.4084" stroke="#0D2601" stroke-linecap="round" stroke-linejoin="round"/>
<path d="M220.405 8.70898C219.098 9.29237 217.949 10.1799 217.055 11.2976C216.161 12.4153 215.546 13.7306 215.264 15.1339C214.295 19.9603 212.044 23.1728 209.477 23.4956C206.91 23.8184 197.257 22.85 195.643 26.393C195.214 27.4285 194.912 28.5124 194.744 29.6208" stroke="#0D2601" stroke-linecap="round" stroke-linejoin="round"/>
<path d="M140.624 73.3423C137.588 71.69 136.205 73.0657 135.098 71.69C133.991 70.3143 138.134 66.7176 129.849 63.1208C129.849 63.1208 129.296 55.3894 117.975 55.1127C106.655 54.836 109.683 62.8442 106.647 64.8116C103.611 66.7791 102.804 63.7049 99.7301 65.6416C96.6559 67.5783 98.0777 71.4441 95.5877 71.9974C93.0976 72.5508 89.7852 69.5074 86.7495 71.4441C83.7138 73.3808 83.6754 75.0331 82.3305 75.0331C80.9855 75.0331 78.1881 73.9264 76.528 75.0331C74.868 76.1398 72.939 77.5155 72.939 77.5155H142.822C142.822 77.5155 143.652 75.0024 140.624 73.3423Z" stroke="#0D2601" stroke-linecap="round" stroke-linejoin="round"/>
<path d="M99.2847 72.2129C98.8849 72.431 98.4716 72.6235 98.0474 72.7893" stroke="#0D2601" stroke-linecap="round" stroke-linejoin="round"/>
<path d="M114.232 59.3091C113.547 59.6143 112.944 60.0791 112.475 60.6647C112.006 61.2503 111.683 61.9397 111.535 62.6753C111.027 65.2037 109.852 66.8945 108.461 67.0636C107.07 67.2327 102.059 66.7254 101.213 68.6007C100.99 69.1442 100.831 69.7115 100.737 70.2914" stroke="#0D2601" stroke-linecap="round" stroke-linejoin="round"/>
<path d="M230.996 131.152C230.996 131.152 267.217 134.741 285.562 157.19C285.562 157.19 304.96 131.183 339.797 131.713C348.307 121.444 353.725 108.97 355.421 95.7414C357.116 82.5131 355.019 69.0753 349.373 56.9926C343.728 44.91 334.767 34.6794 323.532 27.4922C312.298 20.305 299.254 16.4567 285.917 16.3955C272.581 16.3343 259.501 20.0626 248.202 27.1464C236.902 34.2302 227.847 44.378 222.091 56.4083C216.335 68.4387 214.114 81.8566 215.688 95.0999C217.262 108.343 222.565 120.867 230.981 131.213L230.996 131.152Z" fill="white"/>
<path opacity="0.5" d="M285.699 155.429C285.645 155.492 285.594 155.554 285.545 155.613C276.218 144.752 262.816 138.426 251.71 134.802C245.985 132.934 240.841 131.774 237.126 131.08C235.268 130.734 233.765 130.503 232.725 130.359C232.205 130.287 231.8 130.237 231.524 130.204C231.496 130.201 231.469 130.198 231.444 130.195C223.329 120.071 218.213 107.872 216.681 94.9819C215.13 81.9267 217.319 68.6994 222.993 56.8399C228.667 44.9805 237.594 34.9768 248.733 27.9937C259.872 21.0105 272.766 17.3352 285.913 17.3955C299.06 17.4559 311.919 21.2494 322.993 28.3346C334.068 35.4197 342.902 45.5049 348.467 57.4159C354.033 69.327 356.1 82.5739 354.429 95.6143C352.778 108.497 347.545 120.655 339.33 130.707C321.879 130.562 308.284 136.971 299.042 143.433C294.379 146.693 290.818 149.971 288.42 152.437C287.221 153.671 286.311 154.702 285.699 155.429Z" fill="white" stroke="#0D2601" stroke-width="2"/>
<path d="M284.378 21.3591L283.149 298.262H289.266L284.378 21.3591Z" fill="#0D2601"/>
<path d="M286.207 150.35C286.207 150.35 298.434 128.339 320.414 121.614C320.414 121.614 297.182 127.117 285.569 146.069L286.207 150.35Z" fill="#0D2601"/>
<path d="M286.207 87.991C286.207 87.991 298.434 65.9879 320.414 59.2632C320.414 59.2632 297.182 64.7659 285.569 83.7103L286.207 87.991Z" fill="#0D2601"/>
<path d="M286.207 119.171C286.207 119.171 298.434 97.1597 320.414 90.4351C320.414 90.4351 297.182 95.9378 285.569 114.89L286.207 119.171Z" fill="#0D2601"/>
<path d="M284.393 103.884C284.393 103.884 272.596 81.8809 251.346 75.1562C251.346 75.1562 273.765 80.6589 284.97 99.611L284.393 103.884Z" fill="#0D2601"/>
<path d="M284.393 134.449C284.393 134.449 272.596 112.446 251.346 105.721C251.346 105.721 273.765 111.224 284.97 130.176L284.393 134.449Z" fill="#0D2601"/>
<path d="M117.645 159.856C117.645 159.856 147.618 162.831 162.842 181.421C162.842 181.421 178.905 159.903 207.756 160.325C214.806 151.821 219.296 141.488 220.701 130.531C222.107 119.574 220.371 108.442 215.696 98.4335C211.021 88.4245 203.598 79.9496 194.293 73.9957C184.988 68.0418 174.182 64.8537 163.135 64.8029C152.088 64.752 141.254 67.8404 131.894 73.7083C122.535 79.5763 115.034 87.9825 110.267 97.9479C105.5 107.913 103.661 119.028 104.966 129.998C106.271 140.968 110.665 151.341 117.637 159.91L117.645 159.856Z" fill="white"/>
<path opacity="0.3" d="M165.086 177.368C164.091 178.391 163.335 179.247 162.826 179.851C155.063 170.916 144.002 165.706 134.845 162.717C130.096 161.167 125.83 160.204 122.75 159.629C121.209 159.341 119.963 159.15 119.1 159.03C118.672 158.971 118.338 158.929 118.109 158.902C111.433 150.553 107.223 140.501 105.959 129.88C104.677 119.098 106.484 108.174 111.169 98.3795C115.855 88.5849 123.226 80.3229 132.426 74.5556C141.625 68.7883 152.273 65.7529 163.131 65.8029C173.988 65.8529 184.608 68.9862 193.754 74.838C202.9 80.6899 210.195 89.0194 214.79 98.8567C219.385 108.694 221.091 119.634 219.71 130.404C218.348 141.016 214.043 151.032 207.287 159.32C192.831 159.228 181.566 164.542 173.907 169.895C170.035 172.601 167.078 175.321 165.086 177.368Z" fill="white" stroke="#0D2601" stroke-width="2"/>
<path d="M161.851 68.9238L160.844 298.262H165.901L161.851 68.9238Z" fill="#0D2601"/>
<path d="M163.373 175.758C163.373 175.758 173.495 157.528 191.724 151.933C191.724 151.933 172.511 156.491 162.866 172.184L163.373 175.758Z" fill="#0D2601"/>
<path d="M163.373 124.112C163.373 124.112 173.495 105.883 191.724 100.288C191.724 100.288 172.511 104.845 162.866 120.546L163.373 124.112Z" fill="#0D2601"/>
<path d="M163.373 149.935C163.373 149.935 173.495 131.705 191.724 126.11C191.724 126.11 172.511 130.668 162.866 146.369L163.373 149.935Z" fill="#0D2601"/>
<path d="M161.874 137.277C161.874 137.277 152.098 119.047 134.514 113.452C134.514 113.452 153.074 118.01 162.358 133.711L161.874 137.277Z" fill="#0D2601"/>
<path d="M161.874 162.593C161.874 162.593 152.098 144.363 134.514 138.768C134.514 138.768 153.074 143.325 162.358 159.027L161.874 162.593Z" fill="#0D2601"/>
<path d="M188.327 298.001C188.219 295.595 188.534 291.03 191.124 284.167C195.182 273.408 202.291 294.927 202.291 294.927C202.291 294.927 202.291 292.367 209.907 284.167C217.523 275.967 224.117 290.315 224.117 290.315C224.117 290.315 220.567 255.993 229.197 258.552C237.828 261.111 236.806 290.315 236.806 290.315C236.806 290.315 242.9 268.796 251.024 268.796C259.147 268.796 261.176 284.167 261.176 284.167C261.176 284.167 263.205 257.015 271.328 256.5C279.452 255.985 288.582 279.049 288.582 279.049C288.582 279.049 286.046 248.307 294.169 246.77C302.293 245.233 305.336 258.037 305.336 258.037C305.336 258.037 312.437 215.514 326.148 220.64C339.858 225.766 328.177 272.9 328.177 272.9C328.177 272.9 341.88 240.107 353.047 247.792C363.199 254.778 350.28 291.399 347.851 298.001H188.327Z" fill="white"/>
<path d="M352.178 297.931C352.178 297.931 358.127 279.556 355.076 276.482C352.025 273.407 338.86 286.734 338.86 286.734C338.86 286.734 348.505 253.94 333.272 249.844C318.04 245.748 315.512 281.608 315.512 281.608C315.512 281.608 304.345 265.215 301.801 271.363C300.268 275.11 299.41 279.099 299.265 283.145C299.265 283.145 293.685 238.57 280.989 240.622C268.293 242.674 279.975 286.734 279.975 286.734C279.975 286.734 272.873 271.363 264.75 272.9C256.627 274.437 253.552 284.167 253.552 284.167C253.552 284.167 250.002 275.459 247.458 275.459C244.914 275.459 241.878 290.83 241.878 290.83C241.878 290.83 238.804 267.259 233.248 268.289C227.691 269.319 215.986 289.293 215.986 289.293C215.986 289.293 218.023 278.019 211.929 277.511C205.834 277.004 202.283 294.926 202.283 294.926C202.283 294.926 194.16 278.019 189.088 281.093C184.015 284.167 186.436 298.446 186.436 298.446" stroke="#0D2601" stroke-linecap="round" stroke-linejoin="round"/>
<path d="M324.772 297.678L329.191 275.974" stroke="#0D2601" stroke-linecap="round" stroke-linejoin="round"/>
<path d="M293.155 298.001L290.611 283.66" stroke="#0D2601" stroke-linecap="round" stroke-linejoin="round"/>
<path d="M228.959 297.931L232.241 286.219" stroke="#0D2601" stroke-linecap="round" stroke-linejoin="round"/>
<path d="M268.278 298.516L262.698 288.271" stroke="#0D2601" stroke-linecap="round" stroke-linejoin="round"/>
<path d="M325.641 289.293L321.575 281.093" stroke="#0D2601" stroke-linecap="round" stroke-linejoin="round"/>
<path d="M293.155 293.389L296.705 286.219" stroke="#0D2601" stroke-linecap="round" stroke-linejoin="round"/>
<path d="M265.741 292.882L268.278 288.271" stroke="#0D2601" stroke-linecap="round" stroke-linejoin="round"/>
<path d="M229.981 293.582L228.183 287.241" stroke="#0D2601" stroke-linecap="round" stroke-linejoin="round"/>
<path d="M165.171 298.116C165.256 296.248 165.017 292.736 163.119 287.356C160.145 279.002 154.926 295.71 154.926 295.71C154.926 295.71 154.926 293.72 149.347 287.356C143.767 280.993 138.926 292.129 138.926 292.129C138.926 292.129 141.531 265.484 135.198 267.474C128.865 269.465 129.619 292.129 129.619 292.129C129.619 292.129 125.207 275.452 119.213 275.452C113.218 275.452 111.766 287.379 111.766 287.379C111.766 287.379 110.282 266.299 104.326 265.907C98.3701 265.515 91.6684 283.398 91.6684 283.398C91.6684 283.398 93.5283 259.574 87.5722 258.344C81.616 257.115 79.3796 267.098 79.3796 267.098C79.3796 267.098 74.1689 234.089 64.1165 238.063C54.0641 242.036 62.6255 278.634 62.6255 278.634C62.6255 278.634 52.5731 253.18 44.3882 259.144C36.9411 264.569 46.4172 292.959 48.2309 298.116H165.171Z" fill="white"/>
<path d="M45.0261 298.062C45.0261 298.062 40.6686 283.798 42.8973 281.416C45.1261 279.033 54.8096 289.37 54.8096 289.37C54.8096 289.37 47.7391 263.916 58.9059 260.735C70.0727 257.553 71.971 285.389 71.971 285.389C71.971 285.389 80.1635 272.662 82.0234 277.435C83.1495 280.358 83.7782 283.449 83.8832 286.58C83.8832 286.58 87.9795 251.996 97.2865 253.572C106.593 255.147 98.055 289.37 98.055 289.37C98.055 289.37 103.266 277.435 109.222 278.611C115.178 279.786 117.414 287.357 117.414 287.357C117.414 287.357 120.02 280.593 121.88 280.593C123.739 280.593 125.976 292.529 125.976 292.529C125.976 292.529 128.212 274.23 132.309 275.029C136.405 275.829 144.966 291.33 144.966 291.33C144.966 291.33 143.475 282.584 147.941 282.184C152.406 281.785 155.011 295.711 155.011 295.711C155.011 295.711 160.967 282.584 164.695 284.951C168.422 287.318 166.585 298.446 166.585 298.446" stroke="#0D2601" stroke-linecap="round" stroke-linejoin="round"/>
<path d="M65.1233 297.862L61.8801 281.016" stroke="#0D2601" stroke-linecap="round" stroke-linejoin="round"/>
<path d="M88.3176 298.116L90.1775 286.98" stroke="#0D2601" stroke-linecap="round" stroke-linejoin="round"/>
<path d="M135.398 298.062L132.985 288.97" stroke="#0D2601" stroke-linecap="round" stroke-linejoin="round"/>
<path d="M106.554 298.516L110.651 290.561" stroke="#0D2601" stroke-linecap="round" stroke-linejoin="round"/>
<path d="M64.4927 291.353L67.4669 284.989" stroke="#0D2601" stroke-linecap="round" stroke-linejoin="round"/>
<path d="M88.3177 294.535L85.7124 288.97" stroke="#0D2601" stroke-linecap="round" stroke-linejoin="round"/>
<path d="M108.414 294.143L106.554 290.561" stroke="#0D2601" stroke-linecap="round" stroke-linejoin="round"/>
<path d="M134.645 294.681L135.966 289.762" stroke="#0D2601" stroke-linecap="round" stroke-linejoin="round"/>
<path d="M0.70459 298.262H367.295" stroke="#0D2601" stroke-linecap="round" stroke-linejoin="round"/>
<path d="M280.666 234.335L276.915 239.968L246.097 253.364C246.097 253.364 241.809 254.171 241.809 255.508C241.809 256.845 241.002 260.603 241.809 261.141C242.616 261.679 247.957 259.797 247.957 259.797C247.957 259.797 246.351 261.672 247.957 262.21C249.563 262.748 251.17 260.334 251.17 260.334C252.743 259.343 254.264 258.271 255.727 257.122C256.482 256.13 257.112 255.048 257.602 253.902L286.038 246.67L291.933 237.824C291.933 237.824 279.867 236.479 280.666 234.335Z" fill="#B5B5B5" stroke="#0D2601" stroke-linecap="round" stroke-linejoin="round"/>
<path d="M282.811 221.7L279.322 233.152L288.444 238.585L292.125 229.655L282.811 221.7Z" fill="white" stroke="#0D2601" stroke-linecap="round" stroke-linejoin="round"/>
<path d="M279.682 229.462L290.749 236.064L288.804 239.553L278.329 234.12C278.402 232.482 278.866 230.885 279.682 229.462Z" fill="white" stroke="#0D2601" stroke-linecap="round" stroke-linejoin="round"/>
<path d="M257.779 289.992C257.779 289.992 250.016 293.873 247.88 295.618C245.743 297.363 245.359 297.155 245.936 298.531H270.782L270.198 289.6L257.779 289.992Z" fill="white" stroke="#0D2601" stroke-linecap="round" stroke-linejoin="round"/>
<path d="M270.691 297.193H245.936C245.598 297.555 245.637 297.847 245.936 298.554H270.783L270.691 297.193Z" fill="white" stroke="#0D2601" stroke-linecap="round" stroke-linejoin="round"/>
<path d="M291.157 243.827C291.157 243.827 281.65 239.945 273.888 239.169C266.125 238.393 250.017 238.777 249.241 242.243C248.465 245.709 260.692 283.744 260.692 283.744C260.692 283.744 258.555 285.104 258.386 286.05C258.217 286.995 257.81 289.892 257.81 289.892L270.229 291.829C270.229 291.829 270.614 287.948 270.614 284.267C270.614 280.585 266.348 257.868 266.348 257.868L291.379 265.83L282.065 285.619C282.065 285.619 279.16 291.445 282.457 294.358C285.754 297.27 291.187 296.663 291.187 296.663L335.44 297.247L334.671 290.062C334.671 290.062 328.269 289.093 327.101 289.093C325.933 289.093 303.615 283.468 303.615 283.468C303.615 283.468 321.475 264.831 323.412 261.726C324.564 260.007 325.349 258.068 325.717 256.031C326.084 253.994 326.027 251.904 325.549 249.89C324.38 245.233 323.604 244.257 323.604 244.257C323.604 244.257 309.986 250.797 303 249.26C298.721 248.281 294.689 246.432 291.157 243.827Z" fill="#0D2601" stroke="#0D2601" stroke-linecap="round" stroke-linejoin="round"/>
<path d="M259.523 184.242C259.523 184.242 260.884 188.707 260.884 189.291C260.884 189.875 259.908 192.78 260.692 193.749C261.476 194.717 263.766 194.917 263.766 194.917C263.766 194.917 267.255 198.99 268.807 200.543C270.36 202.095 272.104 202.679 274.049 201.711C275.993 200.742 277.738 198.214 277.738 198.214L281.427 201.903L289.965 192.004L286.891 188.123C286.891 188.123 287.66 183.658 284.754 177.84C281.849 172.022 271.751 170.462 265.149 171.63C258.547 172.799 257.003 176.672 257.003 177.448C257.003 178.224 259.523 184.242 259.523 184.242Z" fill="white" stroke="#0D2601" stroke-linecap="round" stroke-linejoin="round"/>
<path d="M263.021 166.581C263.021 166.581 258.94 163.507 256.227 164.837C253.514 166.166 254.69 167.357 254.282 169.686C253.875 172.015 247.104 172.207 247.104 176.088C247.104 179.969 251.954 181.329 252.922 181.521C253.89 181.714 253.122 185.987 255.996 185.987C258.871 185.987 259.493 184.242 259.493 184.242C259.493 184.242 257.357 178.032 259.685 177.064C262.014 176.096 267.255 174.151 266.479 177.832C265.703 181.514 268.423 182.682 269.976 182.298C271.528 181.913 273.465 182.098 273.819 182.874C274.172 183.65 276.124 185.011 276.124 183.074C276.124 181.137 277.092 179.385 278.837 179.385C280.582 179.385 281.911 182.298 281.75 184.626C281.619 186.029 281.085 187.363 280.213 188.469L286.814 188.077C286.814 188.077 288.559 179.346 287.007 173.137C285.454 166.927 278.145 163.476 273.688 162.892C269.23 162.308 263.597 164.837 263.021 166.581Z" fill="#0D2601" stroke="#0D2601" stroke-linecap="round" stroke-linejoin="round"/>
<path d="M264.688 187.708C265.172 188.477 265.288 189.245 264.957 189.437C264.627 189.63 263.95 189.245 263.474 188.508C262.997 187.77 262.867 186.97 263.205 186.778C263.543 186.586 264.204 187.009 264.688 187.708Z" fill="#0D2601"/>
<path d="M267.209 196.423C268.137 196.239 268.977 195.753 269.6 195.041C270.222 194.329 270.592 193.432 270.652 192.488" stroke="#0D2601" stroke-linecap="round" stroke-linejoin="round"/>
<path d="M261.299 186.087C261.299 186.087 261.622 184.281 263.758 185.103" stroke="#0D2601" stroke-linecap="round" stroke-linejoin="round"/>
<path d="M281.841 205.2C281.841 205.2 280.304 218.011 282.034 221.893C283.763 225.774 289.996 241.298 289.996 241.298C289.996 241.298 288.635 250.797 292.516 253.333C296.398 255.869 311.146 256.246 316.779 252.749C322.412 249.252 324.733 246.539 324.733 244.019C324.733 241.498 321.044 230.431 315.227 219.372C310.966 211.272 305.086 204.136 297.95 198.406C293.877 195.109 292.324 193.557 291.548 193.557C290.772 193.557 281.457 201.519 281.841 205.2Z" fill="white" stroke="#0D2601" stroke-linecap="round" stroke-linejoin="round"/>
<path d="M289.996 191.036L279.513 202.871L281.649 209.281L293.485 193.949L289.996 191.036Z" fill="white" stroke="#0D2601" stroke-linecap="round" stroke-linejoin="round"/>
<path d="M290.188 234.312C290.188 234.312 268.839 246.539 266.126 247.515C263.413 248.491 254.675 248.484 252.146 248.284C251.836 248.229 251.517 248.242 251.213 248.324C250.909 248.406 250.627 248.553 250.386 248.757C250.145 248.96 249.952 249.214 249.821 249.5C249.689 249.786 249.623 250.098 249.625 250.413L249.241 257.791C249.241 257.791 251.37 258.375 252.315 257.791C253.26 257.207 254.252 255.07 254.252 255.07C254.252 255.07 257.749 255.462 258.909 254.686C259.671 254.168 260.386 253.584 261.046 252.941C264.632 252.644 268.196 252.13 271.721 251.404C275.602 250.428 293.455 244.61 296.175 244.026C298.896 243.442 299.864 241.89 300.056 240.952C300.249 240.015 290.188 234.312 290.188 234.312Z" fill="white" stroke="#0D2601" stroke-linecap="round" stroke-linejoin="round"/>
<path d="M265.849 247.592C262.882 248.476 254.598 248.476 252.146 248.292C251.836 248.236 251.517 248.25 251.213 248.332C250.909 248.413 250.627 248.561 250.386 248.764C250.145 248.968 249.952 249.221 249.821 249.508C249.689 249.794 249.623 250.106 249.625 250.421L249.241 257.798C249.241 257.798 251.37 258.383 252.315 257.798C253.26 257.214 254.252 255.078 254.252 255.078C254.252 255.078 257.749 255.47 258.909 254.694C259.671 254.175 260.386 253.592 261.046 252.949C261.046 252.949 264.304 252.665 267.601 252.18L265.849 247.592Z" fill="white" stroke="#0D2601" stroke-linecap="round" stroke-linejoin="round"/>
<path d="M291.741 205.4C291.741 205.4 288.444 209.081 288.828 211.802C289.212 214.522 290.188 234.312 290.188 234.312L301.247 238.777L304.321 223.061C304.321 223.061 306.85 218.98 306.458 215.099" fill="white"/>
<path d="M291.741 205.4C291.741 205.4 288.444 209.081 288.828 211.802C289.212 214.522 290.188 234.312 290.188 234.312L301.247 238.777L304.321 223.061C304.321 223.061 306.85 218.98 306.458 215.099" stroke="#0D2601" stroke-linecap="round" stroke-linejoin="round"/>
<path d="M289.22 235.288L300.471 242.074C300.471 242.074 302.009 242.074 302.224 239.554C302.439 237.033 303.576 236.641 302.608 235.288C301.64 233.936 291.349 229.655 290.381 229.655C289.412 229.655 288.444 231.983 289.22 235.288Z" fill="white" stroke="#0D2601" stroke-linecap="round" stroke-linejoin="round"/>
<path d="M334.632 290.208C334.632 290.208 340.45 285.166 341.426 285.358C342.402 285.55 350.157 292.928 350.157 292.928C350.157 292.928 357.335 296.809 357.335 297.393C357.335 297.977 356.174 298.162 356.174 298.162L335.424 297.393L334.632 290.208Z" fill="white" stroke="#0D2601" stroke-linecap="round" stroke-linejoin="round"/>
<path d="M357.305 297.393C357.305 296.809 350.127 292.928 350.127 292.928C350.127 292.928 342.365 285.55 341.396 285.358C341.05 285.289 340.082 285.888 338.991 286.688L348.382 293.312L355.222 298.131L356.144 298.169C356.144 298.169 357.305 297.97 357.305 297.393Z" fill="white" stroke="#0D2601" stroke-linecap="round" stroke-linejoin="round"/>
<path d="M291.349 265.952L289.412 257.798" stroke="#999999" stroke-linecap="round" stroke-linejoin="round"/>
<path d="M223.825 233.643C221.52 232.337 218.131 230.569 218.131 230.569C218.131 230.569 213.565 219.041 209.984 213.661C206.403 208.282 204.282 207.628 200.37 207.306C196.458 206.983 184.738 210.072 184.231 210.887C184.231 210.887 173.317 215.936 170.551 219.525C167.784 223.114 168.752 250.958 168.752 250.958C168.752 250.958 157.04 258.89 153.95 267.705C151.983 273.292 154.273 282.522 164.863 285.296C168.397 286.242 172.105 286.324 175.677 285.535C178.428 287.856 181.475 289.801 184.738 291.322C195.651 296.532 202.814 297.508 209.492 297.839C216.171 298.169 223.011 296.048 224.317 294.765C225.624 293.481 228.229 288.409 221.551 281.085C215.794 274.76 198.425 267.72 193.737 265.899C194.204 263.163 194.46 260.396 194.506 257.621C194.506 257.621 204.604 246.093 205.265 243.45C205.926 240.806 207.571 230.093 207.571 230.093C207.571 230.093 213.112 240.199 214.741 241.659C216.371 243.119 225.816 241.989 226.792 241.989C227.768 241.989 228.26 237.755 228.26 237.755C227.021 236.146 225.523 234.757 223.825 233.643Z" fill="white" stroke="#0D2601" stroke-linecap="round" stroke-linejoin="round"/>
<path d="M221.551 281.047C215.794 274.722 198.425 267.682 193.737 265.86C193.883 265.007 194.006 264.177 194.099 263.393C189.716 264.362 185.166 264.269 180.826 263.124C168.445 259.866 165.84 253.187 165.84 253.187H165.747C162.051 256.185 156.033 261.741 153.95 267.682C151.983 273.269 154.273 282.499 164.863 285.274C168.397 286.219 172.105 286.301 175.677 285.512C178.428 287.833 181.475 289.779 184.738 291.299C195.651 296.51 202.814 297.486 209.492 297.816C216.171 298.147 223.011 296.025 224.317 294.742C225.624 293.458 228.229 288.371 221.551 281.047Z" fill="#696969" stroke="#0D2601" stroke-linecap="round" stroke-linejoin="round"/>
<path d="M160.46 268.827C160.46 268.827 166.324 261.656 173.986 264.592C200.754 274.852 207.54 286.257 209.339 290.815C211.137 295.372 210.476 297.824 209.016 298.8C207.555 299.776 192.239 296.194 184.907 293.589C177.575 290.984 167.799 292.282 159.491 285.281C151.184 278.28 152.49 271.447 155.095 265.568" fill="#696969"/>
<path d="M160.46 268.827C160.46 268.827 166.324 261.656 173.986 264.592C200.754 274.852 207.54 286.257 209.339 290.815C211.137 295.372 210.476 297.824 209.016 298.8C207.555 299.776 192.239 296.194 184.907 293.589C177.575 290.984 167.799 292.282 159.491 285.281C151.184 278.28 152.49 271.447 155.095 265.568" stroke="#0D2601" stroke-linecap="round" stroke-linejoin="round"/>
<path d="M228.229 237.732C226.997 236.14 225.509 234.764 223.825 233.659C221.52 232.352 218.131 230.585 218.131 230.585C218.131 230.585 216.816 227.265 215.057 223.353C213.081 224.997 209.846 228.156 208.601 231.991C210.292 234.988 213.535 240.599 214.749 241.659C216.371 243.127 225.824 241.99 226.8 241.99C227.776 241.99 228.229 237.732 228.229 237.732Z" fill="white" stroke="#0D2601" stroke-linecap="round" stroke-linejoin="round"/>
<path d="M207.54 230.054L207.379 221.262" stroke="#0D2601" stroke-linecap="round" stroke-linejoin="round"/>
<path d="M233.517 252.173C231.687 252.828 229.93 253.673 228.275 254.693C226.738 255.854 226.531 256.83 226.531 258.574C226.531 260.319 223.034 262.648 224.786 262.648C226.538 262.648 227.86 262.064 229.443 259.159C231.027 256.254 232.933 255.393 232.933 255.393C233.053 256.798 233.311 258.188 233.701 259.543C234.244 260.7 234.315 262.023 233.901 263.232C233.509 264.769 235.438 264.4 236.03 260.158C236.343 257.45 235.943 254.708 234.869 252.203L233.517 252.173Z" fill="white" stroke="#0D2601" stroke-linecap="round" stroke-linejoin="round"/>
<path d="M233.132 247.5C233.132 247.5 233.709 250.774 233.517 251.52C233.325 252.265 230.604 254.348 229.636 256.131C229.249 256.856 229.015 257.654 228.949 258.473C228.883 259.293 228.986 260.117 229.251 260.896C229.636 262.087 230.788 265.953 231.38 264.915C231.972 263.878 232.149 262.679 232.149 260.45C232.149 258.221 231.764 256.277 232.917 255.385L234.085 254.494C234.649 255.794 235.104 257.138 235.446 258.513C236.214 261.341 234.862 263.724 235.246 264.17C235.63 264.615 237.19 264.316 237.382 263.124C237.575 261.933 238.351 260.596 238.351 258.213C238.339 256.76 237.903 255.342 237.098 254.133C236.735 253.129 236.442 252.102 236.222 251.058C235.876 249.26 234.685 245.863 233.132 247.5Z" fill="white" stroke="#0D2601" stroke-linecap="round" stroke-linejoin="round"/>
<path d="M239.142 242.274C239.986 243.699 240.755 245.166 241.448 246.67C241.932 247.977 242.262 249.445 241.448 249.744C240.633 250.044 239.98 247.792 239.488 246.816C238.996 245.84 237.352 241.621 239.142 242.274Z" fill="white" stroke="#0D2601" stroke-linecap="round" stroke-linejoin="round"/>
<path d="M239.142 242.274C238.166 240.16 232.625 236.894 231.157 236.087C230.135 235.511 226.869 235.426 225.009 235.419C224.563 235.349 224.109 235.349 223.664 235.419C223.664 235.419 221.058 237.371 221.22 239.492C221.28 240.097 221.539 240.665 221.956 241.107C222.373 241.549 222.925 241.84 223.525 241.936H224.294C224.169 242.727 224.307 243.536 224.686 244.241C225.985 246.247 226.776 248.54 226.992 250.92C226.992 253.041 229.435 252.226 229.758 250.597C230.081 248.968 229.274 246.04 229.274 245.387C229.274 244.733 230.573 242.943 230.573 242.943C230.573 242.943 234.162 246.685 234.646 247.5C235.13 248.315 235.299 252.549 236.606 252.88C237.912 253.21 237.905 250.574 237.905 250.574C238.175 250.596 238.446 250.563 238.703 250.475C238.959 250.387 239.194 250.246 239.393 250.063C239.593 249.88 239.752 249.657 239.861 249.409C239.969 249.161 240.026 248.893 240.026 248.622C240.295 246.465 239.991 244.275 239.142 242.274Z" fill="white" stroke="#0D2601" stroke-linecap="round" stroke-linejoin="round"/>
<path d="M235.561 242.766C235.561 242.766 237.997 244.226 237.997 245.694C237.997 247.162 237.836 250.582 237.836 250.582" stroke="#0D2601" stroke-linecap="round" stroke-linejoin="round"/>
<path d="M209.823 294.603C209.823 296.909 211.122 297.209 206.072 300.306C201.023 303.403 193.369 301.282 185.875 299.653C178.382 298.023 169.421 296.717 166.001 296.717C162.581 296.717 154.412 297.985 151.337 297.985C148.263 297.985 143.199 297.662 143.852 296.033C144.505 294.403 152.805 291.79 153.459 291.145C154.112 290.499 153.95 289.185 155.58 286.741C155.948 286.071 156.545 285.555 157.261 285.287C157.977 285.019 158.766 285.017 159.484 285.281C162.361 287.917 165.936 289.67 169.782 290.33C175.931 291.306 187.205 291.79 191.609 291.79C196.012 291.79 201.546 293.75 202.03 293.75" fill="#696969"/>
<path d="M209.823 294.603C209.823 296.909 211.122 297.209 206.072 300.306C201.023 303.403 193.369 301.282 185.875 299.653C178.382 298.023 169.421 296.717 166.001 296.717C162.581 296.717 154.412 297.985 151.337 297.985C148.263 297.985 143.199 297.662 143.852 296.033C144.505 294.403 152.805 291.79 153.459 291.145C154.112 290.499 153.95 289.185 155.58 286.741C155.948 286.071 156.545 285.555 157.261 285.287C157.977 285.019 158.766 285.017 159.484 285.281C162.361 287.917 165.936 289.67 169.782 290.33C175.931 291.306 187.205 291.79 191.609 291.79C196.012 291.79 201.546 293.75 202.03 293.75" stroke="#0D2601" stroke-linecap="round" stroke-linejoin="round"/>
<path d="M169.782 290.33C165.947 289.664 162.383 287.912 159.514 285.281C158.796 285.017 158.008 285.019 157.292 285.287C156.575 285.555 155.979 286.071 155.61 286.741C153.981 289.185 154.142 290.492 153.489 291.145C152.836 291.798 144.528 294.403 143.882 296.033C143.237 297.662 148.263 297.985 151.337 297.985C154.411 297.985 162.581 296.678 166.001 296.678C167.778 296.728 169.55 296.874 171.311 297.116C171.311 296.97 171.25 296.824 171.211 296.678C170.735 294.649 172.103 291.998 172.864 290.738C171.734 290.615 170.681 290.476 169.782 290.33Z" fill="white" stroke="#0D2601" stroke-linecap="round" stroke-linejoin="round"/>
<path d="M159.484 285.281C158.766 285.017 157.977 285.019 157.261 285.287C156.545 285.555 155.948 286.071 155.58 286.741C153.95 289.185 154.112 290.492 153.458 291.145C152.805 291.798 144.497 294.403 143.852 296.033C143.613 296.609 144.105 297.016 144.966 297.308C146.88 295.256 152.959 293.55 154.657 292.313C156.356 291.076 155.088 290.653 156.878 288.209C157.324 287.638 157.88 287.162 158.512 286.809C159.144 286.455 159.84 286.231 160.56 286.149C159.853 285.642 159.484 285.281 159.484 285.281Z" stroke="#0D2601" stroke-linecap="round" stroke-linejoin="round"/>
<path d="M174.47 216.213C174.47 216.213 167.792 218.818 166.493 224.19C165.194 229.562 167.63 262.963 167.63 263.777C167.63 264.592 172.026 265.407 178.874 266.083C185.722 266.759 198.418 266.898 198.418 266.898C198.418 266.898 203.959 269.334 205.096 269.334C206.234 269.334 208.678 267.874 208.678 267.874C208.678 267.874 208.355 269.334 209.654 269.011C210.953 268.688 215.356 265.099 215.356 264.454C215.356 263.808 212.428 260.703 210.637 260.381C208.847 260.058 200.862 263.147 200.047 263.147C199.232 263.147 185.061 260.073 182.455 258.913C180.384 258.072 178.261 257.364 176.1 256.791L177.245 228.617" fill="white"/>
<path d="M174.47 216.213C174.47 216.213 167.792 218.818 166.493 224.19C165.194 229.562 167.63 262.963 167.63 263.777C167.63 264.592 172.026 265.407 178.874 266.083C185.722 266.759 198.418 266.898 198.418 266.898C198.418 266.898 203.959 269.334 205.096 269.334C206.234 269.334 208.678 267.874 208.678 267.874C208.678 267.874 208.355 269.334 209.654 269.011C210.953 268.688 215.356 265.099 215.356 264.454C215.356 263.808 212.428 260.703 210.637 260.381C208.847 260.058 200.862 263.147 200.047 263.147C199.232 263.147 185.061 260.073 182.455 258.913C180.384 258.072 178.261 257.364 176.1 256.791L177.245 228.617" stroke="#0D2601" stroke-linecap="round" stroke-linejoin="round"/>
<path d="M210.637 260.357C208.839 260.027 200.862 263.124 200.047 263.124C199.232 263.124 185.061 260.05 182.455 258.89C180.384 258.049 178.261 257.341 176.1 256.768L176.722 241.329L166.354 240.929C166.793 251.604 167.63 263.301 167.63 263.777C167.63 264.592 172.026 265.407 178.874 266.083C185.722 266.759 198.418 266.898 198.418 266.898C198.418 266.898 203.959 269.334 205.096 269.334C206.234 269.334 208.678 267.874 208.678 267.874C208.678 267.874 208.355 269.334 209.654 269.011C210.953 268.688 215.356 265.099 215.356 264.454C215.356 263.808 212.428 260.68 210.637 260.357Z" fill="white" stroke="#0D2601" stroke-linecap="round" stroke-linejoin="round"/>
<path d="M215.356 264.431C215.356 263.778 212.428 260.681 210.637 260.358C208.847 260.035 200.862 263.125 200.047 263.125C199.793 263.125 198.241 262.825 196.143 262.356C195.374 263.125 194.644 264.446 194.89 266.783L198.418 266.852C198.418 266.852 203.959 269.288 205.096 269.288C206.234 269.288 208.678 267.828 208.678 267.828C208.678 267.828 208.355 269.288 209.654 268.965C210.952 268.643 215.356 265.077 215.356 264.431Z" fill="white" stroke="#0D2601" stroke-linecap="round" stroke-linejoin="round"/>
<path d="M179.85 184.28C179.85 184.28 173.655 179.4 171.211 181.029C168.768 182.659 158.508 195.685 157.532 199.267C156.556 202.848 161.928 203.67 159.975 206.599C158.023 209.527 154.273 210.672 155.741 214.284C157.209 217.896 163.073 218.196 164.372 219.01C165.67 219.825 167.791 222.922 172.518 221.616C177.244 220.309 176.261 214.284 179.85 213.469C183.439 212.655 183.108 207.774 181.479 203.863C179.85 199.951 178.874 194.579 180.826 192.135C182.778 189.691 179.85 184.28 179.85 184.28Z" fill="#0D2601" stroke="#0D2601" stroke-linecap="round" stroke-linejoin="round"/>
<path d="M183.462 180.93C183.462 180.93 178.466 181.214 176.107 187.454C173.748 193.695 176.107 202.994 176.799 204.524C177.49 206.053 181.102 207.598 183.324 206.322C185.545 205.046 188.596 200.22 190.809 198.967C193.022 197.714 197.472 192.45 197.472 192.45L200.662 196.469C200.662 196.469 202.744 196.193 203.574 192.173C204.404 188.154 201.361 183.85 196.366 181.352C191.37 178.855 185.96 178.993 183.462 180.93Z" fill="#0D2601" stroke="#0D2601" stroke-linecap="round" stroke-linejoin="round"/>
<path d="M182.778 209.043C182.778 209.043 182.939 213.93 184.084 216.052C185.229 218.173 188.157 227.58 191.9 227.941C195.643 228.302 195.481 214.745 195.481 214.745C195.481 214.745 191.085 214.906 188.48 212.14C185.875 209.373 183.108 207.759 182.778 209.043Z" stroke="#0D2601" stroke-linecap="round" stroke-linejoin="round"/>
<path d="M198.026 188.423C198.026 188.423 192.2 195.225 187.62 198.137C183.039 201.05 180.964 201.465 180.964 201.465C180.964 201.465 182.762 201.188 181.517 202.441C180.272 203.694 179.98 203.978 179.296 202.856C178.612 201.734 175.83 200.635 175.269 203.41C175.031 204.568 175.208 205.773 175.771 206.813C176.333 207.853 177.244 208.662 178.343 209.097C179.527 209.595 180.842 209.692 182.086 209.373C182.086 209.373 182.501 214.092 188.05 216.867C193.599 219.641 198.74 215.76 200.262 212.847C201.784 209.934 201.238 196.754 200.954 194.533C200.669 192.312 198.026 188.423 198.026 188.423Z" fill="white" stroke="#0D2601" stroke-linecap="round" stroke-linejoin="round"/>
<path d="M196.627 201.549C196.627 201.549 196.296 204.155 196.788 204.316C197.28 204.477 199.094 205.131 198.417 206.114C197.741 207.098 196.788 207.744 195.651 207.252" stroke="#0D2601" stroke-linecap="round" stroke-linejoin="round"/>
<path d="M189.295 209.535C189.295 209.535 190.602 211.648 195.651 210.511" stroke="#0D2601" stroke-linecap="round" stroke-linejoin="round"/>
<path d="M192.231 202.61C192.231 203.378 191.862 203.993 191.416 203.993C190.97 203.993 190.602 203.371 190.602 202.61C190.602 201.849 190.963 201.227 191.416 201.227C191.87 201.227 192.231 201.841 192.231 202.61Z" fill="#0D2601"/>
<path d="M199.232 201.795C199.232 202.564 198.871 203.179 198.417 203.179C197.964 203.179 197.603 202.556 197.603 201.795C197.603 201.034 197.964 200.412 198.417 200.412C198.871 200.412 199.232 201.027 199.232 201.795Z" fill="#0D2601"/>
<path d="M188.995 200.074C189.44 199.528 190.018 199.106 190.674 198.85C191.33 198.594 192.041 198.513 192.738 198.614" stroke="#0D2601" stroke-linecap="round" stroke-linejoin="round"/>
<path d="M196.788 198.452C196.788 198.452 197.764 196.338 199.862 197.806" stroke="#0D2601" stroke-linecap="round" stroke-linejoin="round"/>
<path d="M250.986 255.662C250.986 255.662 235.261 260.711 231.004 262.263C226.746 263.816 212.759 264.008 211.79 265.56C210.822 267.113 203.859 275.889 202.499 280.931C201.139 285.973 202.945 299.629 204.243 300.483C209.462 303.933 223.188 302.873 228.998 302.65C239.627 302.258 249.917 306.093 255.897 295.272C257.833 291.775 255.036 279.532 254.652 275.459C254.267 271.386 252.899 264.592 252.707 263.616C252.515 262.64 253.898 256.438 250.986 255.662Z" fill="white" stroke="#0D2601" stroke-linecap="round" stroke-linejoin="round"/>
<path d="M231.318 275.39C239.634 272.454 246.727 263.862 248.933 262.417C251.139 260.973 252.345 257.806 252.345 257.806C248.862 260.153 245.081 262.025 241.102 263.37" stroke="#0D2601" stroke-linecap="round" stroke-linejoin="round"/>
<path d="M252.115 259.205C250.543 264.06 247.763 268.436 244.038 271.924" stroke="#0D2601" stroke-linecap="round" stroke-linejoin="round"/>
<path d="M214.926 266.052C214.926 266.052 217.369 267.274 225.685 267.274" stroke="#0D2601" stroke-linecap="round" stroke-linejoin="round"/>
<path d="M213.942 266.298C213.942 266.298 215.902 274.86 226.915 278.287" stroke="#0D2601" stroke-linecap="round" stroke-linejoin="round"/>
<path d="M211.99 269.242C213.66 272.187 215.905 274.767 218.592 276.827" stroke="#0D2601" stroke-linecap="round" stroke-linejoin="round"/>
<path d="M57.5301 228.333C57.5301 228.333 61.8723 240.714 61.8723 245.709C61.8723 250.705 65.3461 278.072 65.7765 281.116C66.0648 283.006 66.6538 284.838 67.521 286.542C70.4876 289.283 73.8571 291.554 77.512 293.274C83.8063 296.348 83.5911 295.449 82.5074 296.748C81.4238 298.047 71.4252 298.285 66.8678 297.839C62.3104 297.393 57.7453 298.923 57.5301 296.971C57.3149 295.018 57.3072 287.195 57.3072 283.721C57.3072 280.247 48.1847 263.094 47.1011 257.652C46.0174 252.211 46.4478 243.757 46.4478 243.757L41.022 230.692L57.5301 228.333Z" fill="white" stroke="#0D2601" stroke-linecap="round" stroke-linejoin="round"/>
<path d="M66.0297 288.717V291.791L57.3606 290.123C57.3606 293.059 57.4375 295.926 57.5604 297.04C57.7756 298.992 62.333 297.47 66.8981 297.909C71.4632 298.347 81.4465 298.124 82.5378 296.817C83.6291 295.511 83.8366 296.387 77.5423 293.343C73.8892 291.62 70.5202 289.35 67.5514 286.611C67.5514 286.611 66.0297 286.757 66.0297 288.717Z" fill="#0D2601" stroke="#0D2601" stroke-linecap="round" stroke-linejoin="round"/>
<path d="M39.7149 229.639C39.7149 229.639 40.3451 243.25 38.1778 248.753C27.3185 276.551 26.8881 286.98 26.8881 286.98C26.8881 286.98 37.7628 295.226 40.153 296.141C42.5431 297.055 43.8419 297.439 42.3202 298.523C40.7985 299.607 27.1186 299.391 24.7285 299.391C22.3384 299.391 16.4744 297.655 15.8289 296.571C15.1833 295.487 17.3659 286.795 17.3659 286.795C17.3659 286.795 18.4573 265.076 18.4573 260.081C18.4573 255.085 23.8831 245.317 23.8831 243.573C23.8831 241.828 22.7995 228.809 22.7995 228.809C22.7995 228.809 35.8108 232.029 39.7149 229.639Z" fill="white" stroke="#0D2601" stroke-linecap="round" stroke-linejoin="round"/>
<path d="M42.3204 298.484C43.8575 297.401 42.5433 296.947 40.1532 296.102C37.763 295.257 26.9036 286.979 26.9036 286.979C26.9036 286.979 25.82 287.41 25.82 289.147C25.8689 290.061 25.6413 290.969 25.1667 291.752C25.1667 291.752 21.693 291.107 17.5659 290.215C17.2201 290.146 16.905 290.077 16.5976 290C16.0366 292.59 15.4448 295.879 15.829 296.517C16.4746 297.601 22.3385 299.338 24.7287 299.338C27.1188 299.338 40.8064 299.576 42.3204 298.484Z" fill="#0D2601" stroke="#0D2601" stroke-linecap="round" stroke-linejoin="round"/>
<path d="M57.7448 164.26L65.776 175.988L99.0074 171.215V177.51C99.0074 177.51 66.0296 186.632 64.6924 185.548C63.3551 184.465 52.3113 179.246 52.3113 179.246L57.7448 164.26Z" fill="#B5B5B5" stroke="#0D2601" stroke-linecap="round" stroke-linejoin="round"/>
<path d="M27.9877 148.843C27.9877 148.843 25.5976 162.746 25.5976 168.387V188.369C25.5976 188.369 18.6808 199.451 17.5664 209.219C16.452 218.988 16.2599 229.855 16.2599 229.855C16.2599 229.855 26.6889 234.42 35.1581 233.766C40.1976 233.382 45.2048 232.653 50.1446 231.584L62.0876 228.763L53.1803 188.369C53.1803 188.369 57.5302 176.841 58.1757 176.211C58.8213 175.581 61.2499 167.757 60.3507 161.87C59.4515 155.983 56.2237 143.848 49.4913 140.589C42.7589 137.331 31.0311 141.243 27.9877 148.843Z" fill="#696969" stroke="#0D2601" stroke-linecap="round" stroke-linejoin="round"/>
<path d="M37.8864 188.546C37.4155 192.089 35.9256 195.418 33.5979 198.13C29.7553 202.564 26.5889 203.417 26.5889 203.417C26.5889 203.417 24.7291 221.47 25.4438 228.51" stroke="#0D2601" stroke-linecap="round" stroke-linejoin="round"/>
<path d="M39.8994 189.145C39.5136 192.475 38.4407 195.689 36.7484 198.583C34.0278 203.017 28.2946 204.593 28.2946 204.593" stroke="#0D2601" stroke-linecap="round" stroke-linejoin="round"/>
<path d="M53.4031 147.322C52.2656 143.441 48.9686 140.881 47.3547 139.828C42.3362 138.591 35.7268 140.343 31.4845 144.071C31.4076 144.532 31.3538 144.947 31.2462 145.37C31.031 146.238 27.7725 165.129 27.7725 165.129C27.7725 165.129 28.541 165.282 29.7399 165.497C28.541 171.607 29.8859 181.798 29.8859 181.798C29.8859 181.798 36.3032 183.865 41.2679 183.658C46.2326 183.45 52.0274 180.584 52.0274 180.584C52.0274 178.839 53.4799 170.086 54.1639 166.058H54.4867C54.4867 166.058 54.9171 152.532 53.4031 147.322Z" fill="white" stroke="#0D2601" stroke-linecap="round" stroke-linejoin="round"/>
<path d="M44.3723 164.006C44.3723 164.006 36.687 171.692 32.7828 172.898L44.3723 164.006Z" fill="white"/>
<path d="M44.3723 164.006C44.3723 164.006 36.687 171.692 32.7828 172.898" stroke="#0D2601" stroke-linecap="round" stroke-linejoin="round"/>
<path d="M44.3726 167.934C44.3726 167.934 40.0227 171.869 36.5105 174.766L44.3726 167.934Z" fill="white"/>
<path d="M44.3726 167.934C44.3726 167.934 40.0227 171.869 36.5105 174.766" stroke="#0D2601" stroke-linecap="round" stroke-linejoin="round"/>
<path d="M61.1115 224.336C57.2682 226.387 52.9793 227.462 48.6229 227.464C48.6229 227.464 42.1057 230.293 31.8996 229.854C26.4547 229.559 21.153 228.001 16.4136 225.305C16.2983 228.071 16.2599 229.854 16.2599 229.854C16.2599 229.854 26.6889 234.42 35.1581 233.766C40.1976 233.382 45.2048 232.653 50.1446 231.584L62.0876 228.763L61.1115 224.336Z" fill="white" stroke="#0D2601" stroke-linecap="round" stroke-linejoin="round"/>
<path d="M48.8376 232.03L49.2757 208.351" stroke="#0D2601" stroke-linecap="round" stroke-linejoin="round"/>
<path d="M70.3413 118.655V124.296C70.3413 124.296 73.1618 126.471 71.4249 127.993C70.7267 128.697 69.9196 129.283 69.0347 129.73C69.0347 129.73 67.9511 134.725 65.561 137.115C63.1708 139.506 61.872 139.068 58.3982 136.677C54.9245 134.287 52.7495 132.773 52.7495 132.773C52.7495 132.773 54.9168 122.129 56.4385 118.655C57.9602 115.181 62.7405 114.743 65.1306 115.174C67.5207 115.604 70.3413 118.655 70.3413 118.655Z" fill="white" stroke="#0D2601" stroke-linecap="round" stroke-linejoin="round"/>
<path d="M67.9664 123.874C67.9664 124.527 67.6744 125.057 67.3209 125.057C66.9673 125.057 66.6753 124.527 66.6753 123.874C66.6753 123.22 66.9597 122.682 67.3209 122.682C67.6821 122.682 67.9664 123.22 67.9664 123.874Z" fill="#0D2601"/>
<path d="M65.9146 121.069C65.9146 121.069 67.1058 119.132 68.7197 120.746" stroke="#0D2601" stroke-linecap="round" stroke-linejoin="round"/>
<path d="M64.3005 130.137C65.0144 130.864 65.9803 131.287 66.9981 131.321" stroke="#0D2601" stroke-linecap="round" stroke-linejoin="round"/>
<path d="M60.65 116.826C60.65 116.826 56.0849 127.77 56.3155 133.019C56.5461 138.268 62.4638 153.324 59.966 158.342C57.4683 163.361 52.1962 167.027 48.3535 161.078C44.5108 155.13 43.1044 153.324 40.599 156.967C38.0936 160.61 35.127 167.234 29.4245 167.234C23.722 167.234 16.8436 159.71 20.2636 151.725C23.6836 143.74 31.4457 140.32 36.2337 132.566C39.7491 127.056 42.2238 120.947 43.5348 114.544L61.0958 115.228L60.65 116.826Z" fill="#0D2601" stroke="#0D2601" stroke-linecap="round" stroke-linejoin="round"/>
<path d="M43.0741 117.964H70.4493C70.4493 117.964 70.4493 106.328 68.1437 104.507C65.838 102.685 47.8467 103.139 45.7947 104.507C43.7427 105.875 42.2056 116.596 43.0741 117.964Z" fill="white" stroke="#0D2601" stroke-linecap="round" stroke-linejoin="round"/>
<path d="M61.7029 117.841C61.7029 117.841 68.0894 120.346 73.7919 120.346C79.4944 120.346 82.461 117.841 82.461 117.841H61.7029Z" fill="white" stroke="#0D2601" stroke-linecap="round" stroke-linejoin="round"/>
<path d="M106.608 170.101C106.608 170.101 108.999 169.671 108.999 171.407C108.999 173.144 106.178 172.945 103.788 172.061C101.398 171.177 104.656 170.562 106.608 170.101Z" fill="#B5B5B5" stroke="#0D2601" stroke-linecap="round" stroke-linejoin="round"/>
<path d="M107.047 172.299C107.047 172.299 109.437 171.861 109.437 173.605C109.437 175.35 106.609 175.143 104.226 174.251C101.844 173.36 105.095 172.737 107.047 172.299Z" fill="#B5B5B5" stroke="#0D2601" stroke-linecap="round" stroke-linejoin="round"/>
<path d="M107.484 174.474C107.484 174.474 109.867 174.036 109.867 175.773C109.867 177.51 107.046 177.31 104.656 176.426C102.266 175.542 105.525 174.904 107.484 174.474Z" fill="#B5B5B5" stroke="#0D2601" stroke-linecap="round" stroke-linejoin="round"/>
<path d="M107.054 176.695C107.054 176.695 109.444 176.257 109.444 177.994C109.444 179.731 106.616 179.531 104.233 178.647C101.851 177.763 105.102 177.125 107.054 176.695Z" fill="#B5B5B5" stroke="#0D2601" stroke-linecap="round" stroke-linejoin="round"/>
<path d="M96.6173 172.299C96.6173 172.299 83.1526 201.834 83.1526 203.809C83.1526 205.784 83.1526 210.972 84.4591 214.015C85.7656 217.059 93.5816 222.7 97.0554 223.353C100.529 224.006 115.3 220.532 117.037 220.094C118.774 219.656 123.339 207.498 123.116 205.108C122.893 202.718 117.252 193.58 116.384 192.081C115.516 190.583 108.353 180.784 107.484 179.016C106.616 177.248 104.003 172.722 104.003 172.722L96.6173 172.299Z" fill="white" stroke="#0D2601" stroke-linecap="round" stroke-linejoin="round"/>
<path d="M99.0076 177.51L97.2708 190.329" stroke="#0D2601" stroke-linecap="round" stroke-linejoin="round"/>
<path d="M102.051 175.988V192.934" stroke="#0D2601" stroke-linecap="round" stroke-linejoin="round"/>
<path d="M104.226 174.251L110.305 193.365" stroke="#0D2601" stroke-linecap="round" stroke-linejoin="round"/>
<path d="M61.4186 174.036C61.4186 174.036 50.7821 147.137 47.9539 145.8C45.1257 144.463 36.6795 144.739 37.5479 154.73C38.4164 164.721 55.1397 185.572 57.3069 185.787C59.4742 186.002 93.5817 174.712 93.5817 174.712C93.5817 174.712 105.11 176.249 105.963 174.927C106.816 173.606 107.046 168.848 107.046 168.848C107.046 168.848 108.584 165.59 107.046 164.506C105.509 163.422 98.5926 164.068 97.4936 164.068C96.3946 164.068 91.1916 169.279 91.1916 169.279L61.4186 174.036Z" fill="white" stroke="#0D2601" stroke-linecap="round" stroke-linejoin="round"/>
<path d="M105.994 174.904C106.862 173.606 107.077 168.825 107.077 168.825C107.077 168.825 108.614 165.567 107.077 164.483C105.54 163.4 98.6234 164.045 97.5244 164.045C96.4254 164.045 91.2225 169.256 91.2225 169.256L85.5737 170.163L86.5344 177.01C90.7075 175.65 93.6126 174.705 93.6126 174.705C93.6126 174.705 105.094 176.249 105.994 174.904Z" fill="white" stroke="#0D2601" stroke-linecap="round" stroke-linejoin="round"/>
<path d="M109.867 161.44L122.248 167.957L119.858 172.299L109.867 161.44Z" fill="white" stroke="#0D2601" stroke-linecap="round" stroke-linejoin="round"/>
<path d="M99.6606 163.615L101.398 159.05C101.398 159.05 102.704 158.396 107.484 159.703C112.265 161.009 121.595 174.251 121.595 174.251C121.595 174.251 114.862 179.031 113.779 179.247C112.695 179.462 108.783 167.719 108.353 166.65C108.008 165.877 107.569 165.149 107.046 164.483L99.6606 163.615Z" fill="white" stroke="#0D2601" stroke-linecap="round" stroke-linejoin="round"/>
<path d="M107.047 164.483L103.204 161.985" stroke="#0D2601" stroke-linecap="round" stroke-linejoin="round"/>
<path d="M132.67 212.463H77.8887V298.308H132.67V212.463Z" fill="white" stroke="#0D2601" stroke-linecap="round" stroke-linejoin="round"/>
<path d="M132.539 241.574H78.0193C77.632 241.574 77.2606 241.421 76.9868 241.147C76.7129 240.873 76.5591 240.502 76.5591 240.114C76.5591 239.727 76.7129 239.356 76.9868 239.082C77.2606 238.808 77.632 238.654 78.0193 238.654H132.539C132.926 238.654 133.298 238.808 133.572 239.082C133.845 239.356 133.999 239.727 133.999 240.114C133.999 240.502 133.845 240.873 133.572 241.147C133.298 241.421 132.926 241.574 132.539 241.574Z" fill="white" stroke="#0D2601" stroke-linecap="round" stroke-linejoin="round"/>
<path d="M132.539 213.754H78.0193C77.632 213.754 77.2606 213.6 76.9868 213.326C76.7129 213.052 76.5591 212.681 76.5591 212.293C76.5591 211.906 76.7129 211.535 76.9868 211.261C77.2606 210.987 77.632 210.833 78.0193 210.833H132.539C132.926 210.833 133.298 210.987 133.572 211.261C133.845 211.535 133.999 211.906 133.999 212.293C133.999 212.681 133.845 213.052 133.572 213.326C133.298 213.6 132.926 213.754 132.539 213.754Z" fill="white" stroke="#0D2601" stroke-linecap="round" stroke-linejoin="round"/>
<path d="M132.539 270.656H78.0193C77.632 270.656 77.2606 270.502 76.9868 270.228C76.7129 269.954 76.5591 269.583 76.5591 269.196C76.5591 268.809 76.7129 268.437 76.9868 268.163C77.2606 267.889 77.632 267.736 78.0193 267.736H132.539C132.926 267.736 133.298 267.889 133.572 268.163C133.845 268.437 133.999 268.809 133.999 269.196C133.999 269.583 133.845 269.954 133.572 270.228C133.298 270.502 132.926 270.656 132.539 270.656Z" fill="white" stroke="#0D2601" stroke-linecap="round" stroke-linejoin="round"/>
</svg>
