<svg width="45" height="47" viewBox="0 0 45 47" fill="none" xmlns="http://www.w3.org/2000/svg">
<path d="M1 6.68421C1 5.93775 1.14703 5.1986 1.43268 4.50896C1.71834 3.81932 2.13704 3.19269 2.66487 2.66487C3.73086 1.59887 5.17666 1 6.68421 1H37.9474C39.4549 1 40.9007 1.59887 41.9667 2.66487C43.0327 3.73086 43.6316 5.17666 43.6316 6.68421V6.68421C43.6316 7.0611 43.4819 7.42255 43.2154 7.68905C42.9489 7.95555 42.5874 8.10526 42.2105 8.10526H2.42105C2.04417 8.10526 1.68272 7.95555 1.41622 7.68905C1.14972 7.42255 1 7.0611 1 6.68421V6.68421ZM5.73684 8.10526H38.8947L35.2118 41.7795C35.0847 42.9394 34.5338 44.0115 33.6649 44.7904C32.7961 45.5692 31.6703 46 30.5034 46H14.1282C12.9613 46 11.8355 45.5692 10.9666 44.7904C10.0978 44.0115 9.54692 42.9394 9.41974 41.7795L5.73684 8.10526Z" stroke="#228662" stroke-width="2" stroke-linecap="round" stroke-linejoin="round"/>
<path d="M8.84776 36.5265L6.77539 17.5791H37.8609L35.7885 36.5265H8.84776Z" stroke="#228662" stroke-width="2" stroke-linecap="round" stroke-linejoin="round"/>
</svg>
