<svg width="57" height="60" viewBox="0 0 57 60" fill="none" xmlns="http://www.w3.org/2000/svg">
<path d="M6.62667 28.6537C6.99983 28.8403 7.18642 28.8403 7.55959 28.8403C7.93276 28.8403 8.30593 28.6537 8.49251 28.6537L21.5535 21.0038C22.1132 20.6306 22.4864 20.0708 22.4864 19.3245C22.4864 18.5782 22.1132 18.0184 21.5535 17.6452L16.8888 14.8465L20.8071 7.75623C21.5535 6.45013 22.673 5.33062 23.9791 4.58428C27.7108 2.53185 32.3754 4.02453 34.4278 7.75623C34.9876 8.68915 36.1071 8.87574 37.04 8.31598H37.2266C37.9729 7.75623 38.1595 6.63672 37.7863 5.89038C36.6668 4.02453 35.1742 2.34527 33.3083 1.41234C27.7108 -1.57302 20.8071 0.292832 17.8218 5.89038L12.5974 14.6599C12.0376 15.5928 12.4108 16.7123 13.1571 17.2721L16.8888 19.5111L9.42544 23.9891V11.4879C9.42544 10.3684 8.6791 9.62208 7.55959 9.62208C6.62667 9.80866 5.88033 10.555 5.88033 11.6745V27.1611C5.88033 27.7208 6.2535 28.2806 6.62667 28.6537Z" fill="white"/>
<path d="M54.579 35.3709L48.0485 23.8026C47.8619 23.4294 47.3022 23.0563 46.929 22.8697C46.3692 22.6831 45.9961 22.8697 45.4363 23.0563L41.3315 25.4819V16.7124L51.5936 22.8697C51.7802 22.8697 51.7802 23.0563 51.9668 23.0563C52.8997 23.4294 54.0192 23.0563 54.3924 22.1233C54.7656 21.1904 54.3924 20.0709 53.4595 19.6977L40.3985 11.8612C39.8388 11.488 39.0924 11.488 38.5327 11.8612C37.7863 12.0478 37.5998 12.6075 37.5998 13.3539V28.8404C37.5998 29.5867 37.7863 30.3331 38.3461 30.7062C38.9058 31.0794 39.6522 31.0794 40.2119 30.7062L45.6229 27.5343L51.2204 37.4233C52.5265 39.8489 52.5265 42.6477 51.2204 45.0733C50.1009 47.3123 47.6753 48.6184 45.2497 48.6184H43.5705C42.6375 48.6184 41.3315 49.3647 41.3315 50.4842C41.518 51.6038 42.451 52.3501 43.5705 52.3501H45.2497C49.168 52.3501 52.7131 50.2977 54.579 46.9391C56.6314 43.2074 56.6314 38.916 54.579 35.3709Z" fill="white"/>
<path d="M36.4803 48.805L23.4193 40.9684C22.8596 40.5952 22.1132 40.5952 21.5535 40.9684C20.9937 41.3416 20.8071 41.9013 20.8071 42.6477V48.805H11.6645C8.86569 48.6184 6.25351 47.1257 4.94741 44.5135C3.45473 41.9013 3.45473 38.5428 4.94741 35.9306C5.50717 34.9977 5.134 33.8782 4.20107 33.3184C3.26815 32.7587 2.14864 33.1318 1.58888 34.0648C-0.650135 37.983 -0.46355 42.6477 1.77547 46.3794C3.8279 49.9245 7.74618 52.1635 11.8511 52.1635H22.673C23.7925 52.1635 24.5388 51.4172 24.5388 50.2976V45.8196L32.0022 50.2976L21.5535 56.4549C20.9937 56.8281 20.6205 57.3879 20.6205 58.1342C20.6205 59.2537 21.5535 60.0001 22.4864 60.0001C22.8596 60.0001 23.0461 59.8135 23.4193 59.6269L36.4803 51.7903C36.8534 51.6037 37.04 51.4172 37.2266 51.044C37.7863 50.2976 37.4132 49.1781 36.4803 48.805Z" fill="white"/>
</svg>
