<svg width="32" height="45" viewBox="0 0 32 45" fill="none" xmlns="http://www.w3.org/2000/svg">
<path d="M25.3631 5.12895L25.6632 5.5H26.1405H29.5C30.0523 5.5 30.5 5.94771 30.5 6.5V7C30.5 7.55229 30.0523 8 29.5 8H2C1.44772 8 1 7.55228 1 7V6.5C1 5.94772 1.44772 5.5 2 5.5H5.3595H5.83677L6.13694 5.12895L9.47727 1H22.0227L25.3631 5.12895ZM1 40.5V12.25H2.25H30.5V40.5C30.5 41.4283 30.1313 42.3185 29.4749 42.9749C28.8185 43.6313 27.9283 44 27 44H4.5C3.57174 44 2.6815 43.6313 2.02513 42.9749C1.36875 42.3185 1 41.4283 1 40.5Z" stroke="#228662" stroke-width="2"/>
</svg>
