<svg width="26" height="42" viewBox="0 0 26 42" fill="none" xmlns="http://www.w3.org/2000/svg">
<path d="M1 8L3.79 1.6C3.86793 1.42144 3.99633 1.26953 4.15941 1.16293C4.3225 1.05634 4.51317 0.999712 4.708 1H21.292C21.4867 0.999907 21.6771 1.05663 21.84 1.16321C22.0029 1.26979 22.1311 1.42159 22.209 1.6L25 8M25 34L22.21 40.4C22.1321 40.5786 22.0037 40.7305 21.8406 40.8371C21.6775 40.9437 21.4868 41.0003 21.292 41H4.707C4.51251 40.9999 4.32227 40.9431 4.15958 40.8365C3.99688 40.7299 3.8688 40.5783 3.791 40.4L1 34H25Z" stroke="#228662" stroke-width="2" stroke-linecap="round" stroke-linejoin="round"/>
<path d="M1 9C1 8.46957 1.21071 7.96086 1.58579 7.58579C1.96086 7.21071 2.46957 7 3 7H23C23.5304 7 24.0391 7.21071 24.4142 7.58579C24.7893 7.96086 25 8.46957 25 9V33C25 33.5304 24.7893 34.0391 24.4142 34.4142C24.0391 34.7893 23.5304 35 23 35H3C2.46957 35 1.96086 34.7893 1.58579 34.4142C1.21071 34.0391 1 33.5304 1 33V9Z" stroke="#228662" stroke-width="2"/>
</svg>
