<svg width="355" height="331" viewBox="0 0 355 331" fill="none" xmlns="http://www.w3.org/2000/svg">
<path opacity="0.2" d="M331.304 179.384H300.646V191.793H331.304V179.384Z" fill="black"/>
<path opacity="0.2" d="M231.578 79.199H200.921V91.608H231.578V79.199Z" fill="black"/>
<path opacity="0.2" d="M212.695 97.9512H182.037V110.36H212.695V97.9512Z" fill="black"/>
<path opacity="0.2" d="M233.462 15.5769H202.804V27.986H233.462V15.5769Z" fill="black"/>
<path opacity="0.2" d="M208.673 166.07H178.015V178.479H208.673V166.07Z" fill="black"/>
<path opacity="0.2" d="M148.233 55.2642H117.576V67.6732H148.233V55.2642Z" fill="black"/>
<path opacity="0.2" d="M181.811 55.2642H151.154V67.6732H181.811V55.2642Z" fill="black"/>
<path opacity="0.2" d="M156.117 257.831H125.459V270.24H156.117V257.831Z" fill="black"/>
<path opacity="0.2" d="M140.058 273.16H109.401V285.569H140.058V273.16Z" fill="black"/>
<path opacity="0.1" d="M195.906 115.105H165.249V127.514H195.906V115.105Z" fill="black"/>
<path opacity="0.1" d="M150.555 24.3945H119.897V36.8036H150.555V24.3945Z" fill="black"/>
<path opacity="0.1" d="M348.823 209.136H318.165V221.546H348.823V209.136Z" fill="black"/>
<path opacity="0.1" d="M169.256 228.115H138.598V240.524H169.256V228.115Z" fill="black"/>
<path opacity="0.1" d="M204.293 228.115H173.635V240.524H204.293V228.115Z" fill="black"/>
<path opacity="0.1" d="M207.213 210.596H176.555V223.006H207.213V210.596Z" fill="black"/>
<path opacity="0.1" d="M230.944 115.105H200.286V127.514H230.944V115.105Z" fill="black"/>
<path opacity="0.2" d="M246.63 271.912H215.972V284.321H246.63V271.912Z" fill="black"/>
<path opacity="0.1" d="M229.841 289.065H199.184V301.475H229.841V289.065Z" fill="black"/>
<path opacity="0.1" d="M264.879 289.065H234.221V301.475H264.879V289.065Z" fill="black"/>
<path opacity="0.2" d="M98.0059 117.463H67.3481V129.872H98.0059V117.463Z" fill="black"/>
<path opacity="0.1" d="M81.217 134.616H50.5593V147.026H81.217V134.616Z" fill="black"/>
<path opacity="0.1" d="M116.255 134.616H85.5969V147.026H116.255V134.616Z" fill="black"/>
<path opacity="0.2" d="M86.042 209.866H55.3843V222.276H86.042V209.866Z" fill="black"/>
<path opacity="0.1" d="M221.812 150.529H191.154V162.938H221.812V150.529Z" fill="black"/>
<path opacity="0.1" d="M175.825 272.43H145.167V284.839H175.825V272.43Z" fill="black"/>
<path opacity="0.1" d="M165.752 39.9353H135.094V52.3444H165.752V39.9353Z" fill="black"/>
<path opacity="0.2" d="M68.5232 168.778H37.8655V181.187H68.5232V168.778Z" fill="black"/>
<path opacity="0.1" d="M86.042 153.449H55.3843V165.858H86.042V153.449Z" fill="black"/>
<path opacity="0.1" d="M164.146 78.8413H133.489V91.2504H164.146V78.8413Z" fill="black"/>
<path opacity="0.1" d="M119.452 86.1262H88.7939V98.5353H119.452V86.1262Z" fill="black"/>
<path opacity="0.2" d="M270.718 179.384H240.061V191.793H270.718V179.384Z" fill="black"/>
<path opacity="0.2" d="M47.012 248.021H16.3542V260.43H47.012V248.021Z" fill="black"/>
<path opacity="0.1" d="M33.7707 73.666H3.11304V86.0751H33.7707V73.666Z" fill="black"/>
<path opacity="0.1" d="M68.8083 73.666H38.1506V86.0751H68.8083V73.666Z" fill="black"/>
<path opacity="0.1" d="M71.728 56.1472H41.0703V68.5563H71.728V56.1472Z" fill="black"/>
<path opacity="0.1" d="M48.8147 106.002H18.157V118.412H48.8147V106.002Z" fill="black"/>
<path opacity="0.2" d="M88.6186 260.795H57.9609V273.204H88.6186V260.795Z" fill="black"/>
<path d="M337.099 298.037H330.873V317.001H337.099V298.037Z" fill="#263238" stroke="#263238" stroke-miterlimit="10" stroke-linecap="round"/>
<path d="M280.492 298.037H274.265V317.001H280.492V298.037Z" fill="#263238" stroke="#263238" stroke-miterlimit="10" stroke-linecap="round"/>
<path d="M275.207 185.581H334.953C335.875 185.581 336.758 185.947 337.41 186.599C338.062 187.25 338.428 188.134 338.428 189.056V191.377H271.725V189.056C271.725 188.599 271.815 188.146 271.991 187.724C272.166 187.302 272.422 186.919 272.746 186.596C273.069 186.273 273.453 186.018 273.875 185.843C274.298 185.669 274.75 185.58 275.207 185.581Z" fill="#263238" stroke="#263238" stroke-miterlimit="10" stroke-linecap="round"/>
<path d="M279.295 191.158H331.676V314.957C331.676 315.646 331.402 316.307 330.914 316.794C330.427 317.282 329.766 317.555 329.077 317.555H281.893C281.204 317.555 280.543 317.282 280.056 316.794C279.568 316.307 279.295 315.646 279.295 314.957V191.158Z" fill="#0FF271" stroke="#263238" stroke-miterlimit="10" stroke-linecap="round"/>
<path d="M295.178 258.013H315.777V314.949C315.777 315.638 315.503 316.299 315.016 316.787C314.529 317.274 313.868 317.548 313.179 317.548H297.777C297.088 317.548 296.427 317.274 295.939 316.787C295.452 316.299 295.178 315.638 295.178 314.949V258.013Z" fill="#0FF271" stroke="#263238" stroke-miterlimit="10" stroke-linecap="round"/>
<path d="M337.676 244.407L331.785 252.729H279.258L273.295 244.407V191.158H337.676V244.407Z" fill="#0FF271" stroke="#263238" stroke-miterlimit="10" stroke-linecap="round"/>
<path d="M296.762 231.122C296.401 231.142 296.044 231.048 295.74 230.852C295.484 230.657 295.295 230.387 295.2 230.079C295.082 229.693 295.025 229.292 295.032 228.889V226.699C295.026 226.292 295.08 225.886 295.193 225.495C295.29 225.18 295.49 224.907 295.762 224.721C296.099 224.522 296.488 224.428 296.879 224.451C297.248 224.432 297.615 224.51 297.945 224.677C298.199 224.822 298.396 225.048 298.507 225.319C298.631 225.648 298.691 225.997 298.682 226.349V226.684H297.55V226.312C297.553 226.134 297.538 225.955 297.507 225.779C297.488 225.647 297.424 225.525 297.324 225.436C297.202 225.346 297.051 225.305 296.901 225.319C296.818 225.312 296.734 225.322 296.655 225.348C296.576 225.374 296.503 225.417 296.441 225.473C296.347 225.588 296.286 225.727 296.266 225.874C296.242 226.056 296.229 226.239 296.229 226.422V229.144C296.228 229.341 296.248 229.536 296.288 229.728C296.314 229.875 296.389 230.008 296.499 230.108C296.622 230.203 296.775 230.25 296.93 230.239C297.009 230.246 297.089 230.237 297.164 230.212C297.24 230.187 297.309 230.146 297.368 230.093C297.479 229.984 297.555 229.844 297.587 229.692C297.627 229.492 297.647 229.289 297.645 229.086V228.473H296.915V227.743H298.682V231.042H297.952L297.864 230.4C297.781 230.606 297.645 230.787 297.47 230.925C297.264 231.07 297.014 231.14 296.762 231.122Z" fill="#263238"/>
<path d="M299.616 231.035V224.531H300.806V230.217H302.383V231.035H299.616Z" fill="#263238"/>
<path d="M302.668 231.035L303.974 224.531H305.244L306.544 231.035H305.442L305.186 229.531H304.055L303.785 231.035H302.668ZM304.171 228.779H305.025L304.587 226.049L304.171 228.779Z" fill="#263238"/>
<path d="M308.799 231.122C308.459 231.137 308.121 231.059 307.821 230.896C307.556 230.741 307.346 230.506 307.223 230.225C307.078 229.88 307.001 229.511 306.996 229.137L308.018 228.94C308.024 229.164 308.056 229.387 308.113 229.604C308.147 229.772 308.228 229.926 308.347 230.049C308.4 230.104 308.463 230.146 308.534 230.174C308.604 230.201 308.68 230.214 308.755 230.21C308.833 230.218 308.911 230.207 308.983 230.176C309.054 230.145 309.117 230.097 309.164 230.035C309.251 229.906 309.295 229.752 309.288 229.597C309.305 229.338 309.236 229.082 309.091 228.867C308.943 228.667 308.771 228.486 308.58 228.327L307.763 227.597C307.542 227.408 307.355 227.183 307.208 226.932C307.065 226.653 306.995 226.341 307.004 226.027C306.99 225.808 307.024 225.589 307.102 225.384C307.18 225.179 307.301 224.992 307.456 224.838C307.796 224.545 308.235 224.396 308.683 224.421C308.945 224.415 309.205 224.463 309.449 224.56C309.642 224.646 309.808 224.782 309.931 224.954C310.057 225.122 310.148 225.313 310.201 225.516C310.259 225.736 310.298 225.961 310.318 226.188L309.303 226.363C309.291 226.182 309.269 226.002 309.237 225.823C309.213 225.68 309.147 225.548 309.047 225.443C308.995 225.403 308.935 225.374 308.871 225.358C308.807 225.342 308.74 225.338 308.675 225.348C308.598 225.344 308.521 225.357 308.45 225.388C308.379 225.418 308.316 225.465 308.266 225.524C308.176 225.649 308.127 225.8 308.128 225.954C308.119 226.144 308.168 226.332 308.266 226.495C308.376 226.658 308.509 226.806 308.661 226.932L309.471 227.662C309.739 227.888 309.971 228.154 310.157 228.451C310.353 228.782 310.452 229.161 310.442 229.546C310.449 229.836 310.378 230.124 310.237 230.378C310.1 230.612 309.903 230.805 309.668 230.94C309.4 231.077 309.1 231.139 308.799 231.122Z" fill="#263238"/>
<path d="M312.248 231.559C311.907 231.572 311.57 231.494 311.27 231.333C311.007 231.176 310.8 230.942 310.678 230.661C310.53 230.318 310.453 229.948 310.452 229.574L311.474 229.377C311.478 229.601 311.507 229.824 311.562 230.041C311.598 230.207 311.679 230.361 311.795 230.486C311.849 230.541 311.914 230.584 311.986 230.611C312.058 230.639 312.135 230.651 312.211 230.647C312.289 230.654 312.367 230.642 312.438 230.612C312.51 230.581 312.572 230.533 312.62 230.472C312.705 230.342 312.745 230.188 312.737 230.034C312.756 229.776 312.689 229.519 312.547 229.304C312.397 229.106 312.225 228.925 312.036 228.763L311.211 228.033C310.995 227.842 310.81 227.618 310.664 227.369C310.518 227.091 310.447 226.778 310.459 226.464C310.445 226.245 310.478 226.025 310.556 225.82C310.634 225.614 310.755 225.428 310.912 225.274C311.252 224.982 311.691 224.833 312.138 224.858C312.388 224.856 312.637 224.903 312.868 224.997C313.062 225.084 313.231 225.22 313.357 225.391C313.48 225.561 313.572 225.751 313.627 225.953C313.687 226.173 313.724 226.398 313.737 226.625L312.73 226.8C312.719 226.618 312.695 226.438 312.657 226.26C312.634 226.118 312.571 225.986 312.474 225.88C312.423 225.831 312.362 225.793 312.295 225.77C312.229 225.746 312.158 225.736 312.087 225.741C312.01 225.736 311.933 225.749 311.862 225.78C311.791 225.81 311.728 225.857 311.678 225.917C311.582 226.039 311.533 226.192 311.54 226.347C311.533 226.536 311.578 226.723 311.671 226.887C311.785 227.048 311.918 227.195 312.065 227.325L312.883 228.055C313.147 228.285 313.378 228.55 313.569 228.844C313.765 229.174 313.864 229.554 313.854 229.939C313.857 230.229 313.787 230.515 313.649 230.771C313.511 231.006 313.312 231.201 313.073 231.333C312.822 231.478 312.538 231.556 312.248 231.559Z" fill="#263238"/>
<path d="M313.106 242.174C312.186 243.634 311.274 245.145 310.347 246.627C310.231 246.829 310.06 246.994 309.855 247.105C309.65 247.216 309.419 247.268 309.186 247.254H307.354V248.576H307.266L306.785 247.751C306.376 247.021 305.967 246.291 305.565 245.605C305.542 245.551 305.531 245.492 305.531 245.433C305.531 245.374 305.542 245.316 305.565 245.262C306.128 244.189 306.712 243.123 307.332 241.97V243.597H309.974L307.916 239.999L311.266 238.064L313.135 241.466L313.106 242.174Z" fill="white"/>
<path d="M303.208 233.32C303.354 233.32 303.5 233.378 303.646 233.385L307.551 233.436C307.808 233.42 308.064 233.48 308.287 233.61C308.509 233.74 308.688 233.934 308.799 234.166C309.069 234.677 309.383 235.166 309.69 235.685L310.865 235.013L310.909 235.057L310.033 236.655C309.777 237.123 309.522 237.597 309.259 238.057C309.208 238.145 309.098 238.254 309.011 238.254C307.792 238.327 306.58 238.378 305.361 238.371L306.668 237.597C306.222 236.867 305.792 236.137 305.325 235.305C304.595 236.553 303.952 237.758 303.281 238.955L299.916 237.108L300.405 236.21C300.704 235.663 301.033 235.13 301.31 234.568C301.435 234.276 301.621 234.013 301.855 233.798C302.089 233.583 302.366 233.42 302.668 233.32H303.208Z" fill="white"/>
<path d="M298.499 239.458L297.324 238.728V238.663H298.631C299.222 238.663 299.813 238.699 300.405 238.663C300.589 238.632 300.779 238.664 300.943 238.754C301.108 238.844 301.237 238.987 301.31 239.159C301.85 240.101 302.441 241.02 302.974 241.991L301.631 241.188L300.302 243.495H304.441V247.356H301.244C300.905 247.368 300.571 247.28 300.282 247.103C299.993 246.927 299.761 246.67 299.616 246.364C298.945 245.064 298.28 243.765 297.58 242.48C297.43 242.246 297.354 241.972 297.36 241.694C297.367 241.416 297.456 241.146 297.616 240.918C297.93 240.466 298.193 239.947 298.499 239.458Z" fill="white"/>
<path d="M326.829 221.597H284.134L280.368 191.158H330.595L326.829 221.597Z" stroke="#263238" stroke-miterlimit="10" stroke-linecap="round"/>
<path d="M341.384 191.158H269.586V197.925H341.384V191.158Z" fill="#0FF271" stroke="#263238" stroke-miterlimit="10" stroke-linecap="round"/>
<path d="M288.062 221.239V208.881" stroke="#263238" stroke-miterlimit="10" stroke-linecap="round"/>
<path d="M296.397 221.239V206.582" stroke="#263238" stroke-miterlimit="10" stroke-linecap="round"/>
<path d="M304.733 221.239V201.983" stroke="#263238" stroke-miterlimit="10" stroke-linecap="round"/>
<path d="M313.076 221.239V206.582" stroke="#263238" stroke-miterlimit="10" stroke-linecap="round"/>
<path d="M321.413 221.239V208.881" stroke="#263238" stroke-miterlimit="10" stroke-linecap="round"/>
<path d="M257.915 298.037H251.689V317.001H257.915V298.037Z" fill="#263238" stroke="#263238" stroke-miterlimit="10" stroke-linecap="round"/>
<path d="M201.308 298.037H195.082V317.001H201.308V298.037Z" fill="#263238" stroke="#263238" stroke-miterlimit="10" stroke-linecap="round"/>
<path d="M196.023 185.581H255.791C256.715 185.581 257.6 185.948 258.253 186.601C258.906 187.254 259.273 188.139 259.273 189.063V191.384H192.542V189.063C192.542 188.139 192.908 187.254 193.561 186.601C194.214 185.948 195.1 185.581 196.023 185.581Z" fill="#263238" stroke="#263238" stroke-miterlimit="10" stroke-linecap="round"/>
<path d="M200.111 191.158H252.47V314.957C252.47 315.646 252.196 316.307 251.709 316.794C251.221 317.282 250.56 317.555 249.871 317.555H202.709C202.02 317.555 201.359 317.282 200.872 316.794C200.385 316.307 200.111 315.646 200.111 314.957V191.158Z" fill="#0FF271" stroke="#263238" stroke-miterlimit="10" stroke-linecap="round"/>
<path d="M215.973 258.013H236.572V314.949C236.572 315.638 236.298 316.299 235.811 316.787C235.323 317.274 234.662 317.548 233.973 317.548H218.593C218.252 317.548 217.914 317.481 217.599 317.35C217.283 317.219 216.997 317.028 216.756 316.787C216.514 316.545 216.323 316.259 216.192 315.944C216.062 315.628 215.995 315.29 215.995 314.949V258.013H215.973Z" fill="#0FF271" stroke="#263238" stroke-miterlimit="10" stroke-linecap="round"/>
<path d="M258.492 244.407L252.609 252.729H200.082L194.111 244.407V191.158H258.492V244.407Z" fill="#0FF271" stroke="#263238" stroke-miterlimit="10" stroke-linecap="round"/>
<path d="M213.695 230.458V223.954H215.607C215.938 223.94 216.266 224.015 216.556 224.173C216.8 224.318 216.989 224.539 217.096 224.801C217.218 225.12 217.275 225.46 217.264 225.801C217.279 226.154 217.206 226.505 217.053 226.823C216.918 227.073 216.705 227.273 216.447 227.392C216.156 227.514 215.842 227.574 215.527 227.567H214.885V230.487L213.695 230.458ZM214.885 226.735H215.33C215.503 226.746 215.676 226.713 215.834 226.64C215.894 226.611 215.947 226.569 215.99 226.518C216.033 226.466 216.064 226.406 216.082 226.341C216.135 226.163 216.159 225.979 216.155 225.794C216.158 225.6 216.138 225.406 216.096 225.217C216.085 225.151 216.059 225.088 216.021 225.033C215.984 224.978 215.934 224.931 215.877 224.896C215.707 224.814 215.518 224.779 215.33 224.794H214.885V226.735Z" fill="#263238"/>
<path d="M217.892 230.458V223.954H219.082V229.641H220.659V230.458H217.892Z" fill="#263238"/>
<path d="M220.943 230.458L222.242 223.954H223.513L224.812 230.458H223.717L223.454 228.954H222.323L222.06 230.458H220.943ZM222.447 228.203H223.33L222.885 225.473L222.447 228.203Z" fill="#263238"/>
<path d="M227.075 230.524C226.732 230.537 226.392 230.459 226.09 230.298C225.827 230.141 225.62 229.906 225.498 229.626C225.355 229.284 225.278 228.917 225.272 228.546L226.294 228.341C226.297 228.565 226.327 228.788 226.382 229.006C226.418 229.172 226.499 229.326 226.615 229.451C226.67 229.505 226.735 229.547 226.807 229.574C226.878 229.602 226.955 229.614 227.031 229.611C227.109 229.619 227.187 229.607 227.258 229.577C227.33 229.546 227.392 229.498 227.44 229.436C227.527 229.307 227.57 229.154 227.564 228.998C227.576 228.752 227.506 228.508 227.367 228.305C227.221 228.101 227.049 227.917 226.856 227.757L226.038 227.027C225.816 226.84 225.628 226.615 225.484 226.363C225.341 226.083 225.271 225.772 225.279 225.458C225.267 225.239 225.301 225.02 225.379 224.815C225.457 224.61 225.577 224.424 225.732 224.268C226.071 223.976 226.511 223.827 226.958 223.852C227.221 223.845 227.483 223.895 227.725 223.998C227.919 224.078 228.086 224.213 228.206 224.385C228.331 224.554 228.422 224.744 228.476 224.947C228.536 225.167 228.573 225.392 228.586 225.619L227.579 225.794C227.568 225.612 227.543 225.432 227.506 225.254C227.483 225.112 227.42 224.98 227.323 224.874C227.271 224.826 227.21 224.79 227.144 224.766C227.077 224.742 227.007 224.732 226.936 224.735C226.859 224.731 226.782 224.744 226.711 224.775C226.64 224.805 226.577 224.852 226.527 224.911C226.431 225.033 226.382 225.186 226.389 225.341C226.379 225.531 226.428 225.719 226.527 225.881C226.638 226.045 226.77 226.193 226.922 226.319L227.732 227.049C227.998 227.277 228.229 227.542 228.418 227.838C228.614 228.168 228.713 228.548 228.703 228.933C228.706 229.223 228.636 229.509 228.498 229.765C228.363 230 228.166 230.194 227.929 230.327C227.666 230.465 227.372 230.533 227.075 230.524Z" fill="#263238"/>
<path d="M230.053 230.458V224.83H229.017V223.954H232.258V224.83H231.236V230.458H230.053Z" fill="#263238"/>
<path d="M232.885 230.458V223.954H234.053V230.458H232.885Z" fill="#263238"/>
<path d="M236.813 230.524C236.419 230.545 236.027 230.448 235.689 230.246C235.427 230.07 235.23 229.814 235.127 229.516C235.013 229.153 234.959 228.773 234.966 228.392V226.071C234.957 225.68 235.012 225.291 235.127 224.918C235.222 224.616 235.421 224.357 235.689 224.188C236.028 223.988 236.42 223.894 236.813 223.918C237.178 223.899 237.541 223.98 237.864 224.151C238.116 224.298 238.309 224.528 238.411 224.801C238.522 225.12 238.576 225.456 238.572 225.794V226.334H237.426V225.772C237.426 225.589 237.426 225.429 237.426 225.275C237.411 225.144 237.358 225.019 237.273 224.918C237.213 224.868 237.144 224.831 237.07 224.809C236.997 224.786 236.919 224.779 236.842 224.786C236.762 224.779 236.682 224.787 236.605 224.811C236.529 224.835 236.458 224.874 236.397 224.925C236.298 225.029 236.234 225.162 236.214 225.304C236.186 225.481 236.174 225.659 236.178 225.837V228.662C236.172 228.858 236.19 229.054 236.229 229.246C236.256 229.381 236.328 229.502 236.433 229.589C236.552 229.674 236.696 229.715 236.842 229.706C236.918 229.714 236.995 229.706 237.068 229.682C237.141 229.658 237.208 229.619 237.265 229.567C237.35 229.46 237.403 229.331 237.419 229.195C237.431 229.02 237.431 228.844 237.419 228.67V228.086H238.601V228.611C238.606 228.958 238.554 229.303 238.448 229.633C238.359 229.93 238.171 230.188 237.915 230.363C237.571 230.523 237.188 230.578 236.813 230.524Z" fill="#263238"/>
<path d="M233.718 242.174L230.959 246.626C230.843 246.828 230.672 246.994 230.468 247.105C230.263 247.216 230.031 247.268 229.798 247.254H227.966V248.575H227.878L227.397 247.751C226.988 247.021 226.579 246.291 226.178 245.605C226.154 245.55 226.143 245.492 226.143 245.433C226.143 245.374 226.154 245.316 226.178 245.261C226.74 244.188 227.324 243.123 227.937 241.969V243.597H230.572L228.513 239.999L231.864 238.064L233.732 241.466L233.718 242.174Z" fill="white"/>
<path d="M223.813 233.32C223.966 233.32 224.112 233.378 224.258 233.385L228.163 233.436C228.42 233.421 228.676 233.482 228.898 233.612C229.12 233.742 229.299 233.935 229.411 234.166C229.681 234.677 229.988 235.166 230.302 235.685L231.477 235.013L231.521 235.057L230.645 236.655C230.389 237.123 230.134 237.597 229.864 238.057C229.813 238.144 229.711 238.254 229.623 238.254C228.404 238.327 227.192 238.378 225.973 238.371L227.287 237.597C226.842 236.867 226.411 236.137 225.937 235.305C225.243 236.553 224.572 237.758 223.9 238.955L220.528 237.093L221.024 236.196C221.323 235.648 221.652 235.115 221.922 234.553C222.05 234.261 222.237 233.999 222.472 233.784C222.707 233.569 222.985 233.406 223.287 233.305L223.813 233.32Z" fill="white"/>
<path d="M219.111 239.458L217.929 238.728V238.663H219.228C219.827 238.663 220.418 238.699 221.009 238.663C221.194 238.632 221.384 238.664 221.548 238.754C221.712 238.844 221.842 238.987 221.914 239.159C222.447 240.101 223.039 241.02 223.571 241.991L222.236 241.188L220.9 243.495H225.046V247.356H221.849C221.51 247.369 221.175 247.281 220.886 247.105C220.596 246.928 220.365 246.67 220.221 246.364C219.549 245.064 218.878 243.765 218.184 242.48C218.033 242.246 217.955 241.972 217.962 241.694C217.968 241.415 218.059 241.145 218.221 240.918C218.542 240.466 218.805 239.947 219.111 239.458Z" fill="white"/>
<path d="M247.645 221.597H204.95L201.184 191.158H251.411L247.645 221.597Z" stroke="#263238" stroke-miterlimit="10" stroke-linecap="round"/>
<path d="M262.2 191.158H190.403V197.925H262.2V191.158Z" fill="#0FF271" stroke="#263238" stroke-miterlimit="10" stroke-linecap="round"/>
<path d="M208.877 221.239V208.881" stroke="#263238" stroke-miterlimit="10" stroke-linecap="round"/>
<path d="M217.213 221.239V206.582" stroke="#263238" stroke-miterlimit="10" stroke-linecap="round"/>
<path d="M225.557 221.239V201.983" stroke="#263238" stroke-miterlimit="10" stroke-linecap="round"/>
<path d="M233.893 221.239V206.582" stroke="#263238" stroke-miterlimit="10" stroke-linecap="round"/>
<path d="M242.229 221.239V208.881" stroke="#263238" stroke-miterlimit="10" stroke-linecap="round"/>
<path d="M179.796 190.72H116.16C116.16 190.72 112.233 128.295 116.16 123.843C123.737 115.251 173.599 116.806 179.796 123.843C184.14 128.763 179.796 190.72 179.796 190.72Z" fill="#263238" stroke="#263238" stroke-miterlimit="10" stroke-linecap="round"/>
<path d="M161.197 132.835H134.949C129.075 132.835 124.313 137.597 124.313 143.471V170.975C124.313 176.849 129.075 181.61 134.949 181.61H161.197C167.071 181.61 171.833 176.849 171.833 170.975V143.471C171.833 137.597 167.071 132.835 161.197 132.835Z" fill="#263238" stroke="white" stroke-miterlimit="10" stroke-linecap="round"/>
<path d="M179.22 298.037H172.993V317.001H179.22V298.037Z" fill="#263238" stroke="#263238" stroke-miterlimit="10" stroke-linecap="round"/>
<path d="M122.612 298.037H116.386V317.001H122.612V298.037Z" fill="#263238" stroke="#263238" stroke-miterlimit="10" stroke-linecap="round"/>
<path d="M121.415 191.158H173.796V314.957C173.796 315.298 173.729 315.636 173.599 315.952C173.468 316.267 173.277 316.553 173.035 316.795C172.794 317.036 172.507 317.227 172.192 317.358C171.877 317.489 171.539 317.556 171.198 317.556H123.999C123.31 317.556 122.649 317.282 122.162 316.795C121.675 316.307 121.401 315.646 121.401 314.957V191.158H121.415Z" fill="#0FF271" stroke="#263238" stroke-miterlimit="10" stroke-linecap="round"/>
<path d="M137.306 258.014H157.905V314.95C157.905 315.639 157.632 316.3 157.144 316.787C156.657 317.274 155.996 317.548 155.307 317.548H139.905C139.216 317.548 138.555 317.274 138.068 316.787C137.58 316.3 137.306 315.639 137.306 314.95V258.014Z" fill="#0FF271" stroke="#263238" stroke-miterlimit="10" stroke-linecap="round"/>
<path d="M179.796 244.408L173.913 252.729H121.386L115.415 244.408V191.158H179.796V244.408Z" fill="#0FF271" stroke="#263238" stroke-miterlimit="10" stroke-linecap="round"/>
<path d="M138.014 230.458V223.955H139.919C140.252 223.94 140.582 224.016 140.876 224.174C141.119 224.317 141.306 224.538 141.408 224.801C141.533 225.12 141.592 225.46 141.584 225.801C141.6 226.155 141.524 226.507 141.365 226.823C141.234 227.077 141.02 227.278 140.759 227.393C140.468 227.517 140.155 227.576 139.839 227.568H139.197V230.488L138.014 230.458ZM139.197 226.736H139.649C139.822 226.745 139.995 226.712 140.153 226.641C140.213 226.61 140.265 226.568 140.308 226.517C140.351 226.465 140.382 226.406 140.401 226.341C140.451 226.163 140.473 225.979 140.467 225.794C140.472 225.6 140.455 225.407 140.416 225.217C140.403 225.151 140.376 225.088 140.337 225.033C140.298 224.977 140.248 224.931 140.189 224.896C140.022 224.813 139.835 224.778 139.649 224.794H139.197V226.736Z" fill="#263238"/>
<path d="M141.569 230.458L142.868 223.955H144.138L145.438 230.458H144.336L144.08 228.955H142.978L142.686 230.458H141.569ZM143.073 228.203H143.956L143.511 225.473L143.073 228.203Z" fill="#263238"/>
<path d="M146.058 230.458V223.955H147.971C148.301 223.94 148.629 224.016 148.92 224.174C149.163 224.319 149.353 224.539 149.46 224.801C149.578 225.121 149.635 225.46 149.628 225.801C149.642 226.154 149.57 226.505 149.416 226.823C149.282 227.074 149.069 227.274 148.81 227.393C148.519 227.515 148.206 227.575 147.891 227.568H147.248V230.488L146.058 230.458ZM147.248 226.736H147.693C147.866 226.745 148.039 226.712 148.197 226.641C148.257 226.611 148.31 226.568 148.352 226.517C148.395 226.465 148.427 226.406 148.445 226.342C148.495 226.163 148.517 225.979 148.511 225.794C148.516 225.601 148.499 225.407 148.46 225.217C148.447 225.151 148.42 225.088 148.381 225.033C148.342 224.977 148.292 224.931 148.234 224.896C148.066 224.813 147.879 224.778 147.693 224.794H147.248V226.736Z" fill="#263238"/>
<path d="M150.277 230.458V223.955H153.007V224.794H151.445V226.663H152.657V227.488H151.445V229.677H153V230.458H150.277Z" fill="#263238"/>
<path d="M153.693 230.458V223.955H155.248C155.627 223.944 156.004 223.999 156.365 224.115C156.651 224.204 156.895 224.393 157.051 224.648C157.228 224.961 157.312 225.318 157.292 225.677C157.295 225.923 157.27 226.167 157.219 226.407C157.177 226.601 157.092 226.783 156.971 226.94C156.848 227.097 156.684 227.216 156.496 227.283L157.401 230.488H156.212L155.423 227.509H154.883V230.458H153.693ZM154.883 226.736H155.248C155.438 226.743 155.628 226.708 155.803 226.633C155.937 226.567 156.041 226.452 156.095 226.312C156.159 226.13 156.189 225.937 156.182 225.743C156.202 225.486 156.138 225.23 156 225.013C155.914 224.919 155.807 224.848 155.687 224.805C155.568 224.762 155.44 224.748 155.314 224.765H154.883V226.736Z" fill="#263238"/>
<path d="M155.496 242.174L152.745 246.627C152.627 246.829 152.455 246.994 152.249 247.105C152.043 247.216 151.81 247.268 151.577 247.255H149.745V248.576H149.657L149.175 247.751C148.766 247.021 148.358 246.291 147.956 245.605C147.933 245.551 147.921 245.492 147.921 245.433C147.921 245.374 147.933 245.316 147.956 245.262C148.518 244.189 149.102 243.123 149.723 241.97V243.597H152.365L150.277 240.013L153.628 238.079L155.496 241.481V242.174Z" fill="white"/>
<path d="M145.598 233.32C145.744 233.32 145.89 233.378 146.036 233.385L149.942 233.437C150.199 233.42 150.455 233.481 150.677 233.611C150.9 233.741 151.078 233.934 151.19 234.167C151.46 234.677 151.774 235.167 152.08 235.685L153.256 235.013L153.299 235.057L152.423 236.656C152.168 237.123 151.912 237.597 151.65 238.057C151.599 238.145 151.489 238.254 151.402 238.254C150.19 238.327 148.971 238.378 147.752 238.371L149.058 237.597C148.613 236.867 148.182 236.137 147.715 235.305C146.985 236.553 146.343 237.758 145.671 238.955L142.306 237.094L142.795 236.196C143.095 235.648 143.423 235.115 143.701 234.553C143.826 234.261 144.012 233.999 144.246 233.784C144.48 233.569 144.757 233.405 145.058 233.305L145.598 233.32Z" fill="white"/>
<path d="M140.89 239.459L139.715 238.729V238.663H141.021C141.613 238.663 142.204 238.7 142.795 238.663C142.98 238.632 143.17 238.664 143.334 238.754C143.498 238.844 143.627 238.987 143.7 239.159C144.241 240.101 144.832 241.021 145.365 241.992L144.022 241.189L142.693 243.495H146.832V247.357H143.635C143.296 247.368 142.962 247.28 142.672 247.104C142.383 246.927 142.152 246.67 142.007 246.364C141.335 245.065 140.671 243.765 139.978 242.481C139.821 242.25 139.737 241.978 139.737 241.7C139.737 241.421 139.821 241.149 139.978 240.919C140.321 240.466 140.583 239.948 140.89 239.459Z" fill="white"/>
<path d="M168.957 221.597H126.255L122.488 191.158H172.723L168.957 221.597Z" stroke="#263238" stroke-miterlimit="10" stroke-linecap="round"/>
<path d="M183.504 191.158H111.707V197.925H183.504V191.158Z" fill="#0FF271" stroke="#263238" stroke-miterlimit="10" stroke-linecap="round"/>
<path d="M130.182 221.239V208.881" stroke="#263238" stroke-miterlimit="10" stroke-linecap="round"/>
<path d="M138.518 221.239V206.582" stroke="#263238" stroke-miterlimit="10" stroke-linecap="round"/>
<path d="M146.861 221.239V201.983" stroke="#263238" stroke-miterlimit="10" stroke-linecap="round"/>
<path d="M155.197 221.239V206.582" stroke="#263238" stroke-miterlimit="10" stroke-linecap="round"/>
<path d="M163.533 221.239V208.881" stroke="#263238" stroke-miterlimit="10" stroke-linecap="round"/>
<path d="M242.25 1V155.8H339.705V1H242.25ZM336.158 38.1834H293.208V6.63518H336.158V38.1834ZM293.208 80.2356H336.158V114.039H293.208V80.2356ZM293.208 76.1114V42.3076H336.158V76.1114H293.208ZM245.812 6.63518H288.762V38.1834H246.031V42.3076H288.762V76.1114H246.031V80.2356H288.762V114.039H246.031V118.164H288.762V150.164H245.812V6.63518ZM293.208 150.164V118.164H336.158V150.164H293.208Z" stroke="#263238" stroke-miterlimit="10" stroke-linecap="round"/>
<path d="M282.609 16.0662L260.937 34.0009" stroke="#263238" stroke-miterlimit="10" stroke-linecap="round"/>
<path d="M325.574 51.1909L303.902 69.1184" stroke="#263238" stroke-miterlimit="10" stroke-linecap="round"/>
<path d="M276.63 127.032L254.958 144.967" stroke="#263238" stroke-miterlimit="10" stroke-linecap="round"/>
<path d="M271.244 21.2998L261.309 29.519" stroke="#263238" stroke-miterlimit="10" stroke-linecap="round"/>
<path d="M323.924 47.0815L313.989 55.3007" stroke="#263238" stroke-miterlimit="10" stroke-linecap="round"/>
<path d="M275.353 132.638L265.418 140.858" stroke="#263238" stroke-miterlimit="10" stroke-linecap="round"/>
<path d="M272.36 93.0315L262.433 101.251" stroke="#263238" stroke-miterlimit="10" stroke-linecap="round"/>
<path d="M323.172 127.777L313.245 136.003" stroke="#263238" stroke-miterlimit="10" stroke-linecap="round"/>
<path d="M345.749 155.698H236.652V169.253H345.749V155.698Z" stroke="#263238" stroke-miterlimit="10" stroke-linecap="round"/>
<path d="M104.744 277.97C103.284 279.671 103.722 281.781 103.619 284.029C103.641 285.063 103.587 286.098 103.459 287.124C103.036 285.737 102.568 284.277 101.999 282.89C101.999 281.233 101.933 279.168 101.817 277.605C101.656 275.372 101.087 272.233 98.7726 272.35C97.0646 272.445 96.5828 274 96.8456 275.532C97.196 277.467 98.5391 278.788 99.8968 280.416C100.55 281.156 101.15 281.941 101.692 282.766C101.744 282.861 101.948 283.401 101.984 283.496V283.533C102.371 284.54 102.714 285.606 103.036 286.635C102.371 285.336 101.422 283.679 100.685 282.525C99.4734 280.649 96.9843 278.211 95.0937 280.233C93.6995 281.73 94.8893 283.394 95.9332 284.496C97.2544 285.898 98.7434 286.139 100.707 286.606C101.576 286.73 102.424 286.976 103.225 287.336C103.269 287.336 103.298 287.503 103.306 287.547C103.311 287.581 103.311 287.616 103.306 287.649H103.364C103.895 289.598 104.29 291.581 104.547 293.584C104.547 293.737 104.547 293.898 104.59 294.051C103.612 292.701 102.539 291.277 101.473 290.029C100.116 288.431 97.3054 286.555 95.7434 288.759C94.5973 290.387 95.8164 291.81 96.9697 292.701C98.4296 293.832 99.9406 293.818 101.89 293.898C102.364 293.898 103.999 293.766 104.583 294.146V294.197L104.525 294.263H104.59C104.656 295.345 104.656 296.429 104.59 297.511C104.444 298.599 104.014 299.701 103.758 300.745C103.306 299.475 102.679 298.273 101.897 297.175C100.736 295.518 98.2033 293.365 96.3054 295.037C94.9039 296.277 95.7361 297.81 96.7069 298.81C97.9405 300.073 99.4296 300.183 101.254 300.497C102.078 300.543 102.891 300.703 103.671 300.971C103.255 302.591 102.729 304.19 102.349 305.832C101.729 304.664 100.972 303.573 100.094 302.584C98.758 301.19 96.1229 300.153 94.5244 301.891C93.3418 303.175 94.0791 304.511 95.1813 305.278C96.5682 306.241 97.9478 306.008 99.7435 305.905C100.174 305.905 101.751 305.599 102.298 305.905C101.785 307.754 101.597 309.678 101.744 311.592C101.722 311.585 101.699 311.585 101.678 311.592C101.678 311.592 101.722 311.592 101.736 311.592C101.751 311.592 101.831 311.752 101.736 311.694C100.619 310.847 99.999 309.854 98.8164 308.84C97.3565 307.628 94.7433 307.008 93.3637 308.964C92.3418 310.424 93.5097 311.665 94.7214 312.19C96.2543 312.855 97.4806 312.519 99.2325 312.11C99.6705 312.008 101.138 311.511 101.744 311.745C102.263 313.946 103.06 316.073 104.116 318.074L104.291 317.92C103.245 315.944 102.464 313.838 101.97 311.657C103.301 312.038 104.657 312.324 106.028 312.511C108.101 312.701 111.138 312.154 111.729 309.592C112.174 307.716 110.671 307.044 109.152 307.212C107.233 307.431 105.912 308.672 104.211 309.906C103.528 310.523 102.776 311.06 101.97 311.504C101.649 309.643 102.101 307.774 102.51 305.905C103.819 306.286 105.153 306.574 106.503 306.767C108.554 307 111.547 306.205 112.131 303.686C112.554 301.832 111.174 301 109.678 301.226C107.787 301.518 106.722 302.767 105.057 304.029C104.663 304.336 103.255 305.65 102.554 305.818C102.904 304.285 103.422 302.686 103.831 301.139C103.7 301.139 103.598 301.139 104.087 301.044C105.512 300.911 106.927 300.68 108.32 300.351C110.007 299.861 112.941 297.774 112.357 295.241C111.926 293.343 110.364 293.139 109.036 294.102C107.35 295.314 107.079 296.854 105.941 298.672C105.634 299.146 104.671 300.861 103.875 301.095C104.145 299.942 104.649 298.708 104.809 297.562C104.882 296.449 104.882 295.332 104.809 294.219C106.117 293.943 107.393 293.537 108.62 293.007C110.707 292.029 112.612 289.65 111.853 287.131C111.291 285.27 109.663 285.022 108.291 286.073C106.583 287.409 106.452 289.168 105.722 291.248C105.507 292.162 105.197 293.05 104.795 293.898C104.776 293.792 104.764 293.684 104.758 293.577C104.499 291.53 104.09 289.505 103.532 287.518C104.68 286.691 105.781 285.802 106.831 284.854C108.561 283.211 109.875 280.175 108.503 278.022C107.503 276.401 105.868 276.627 104.744 277.97Z" fill="#263238"/>
<path d="M79.7208 295.255C79.3485 296.555 80.1004 297.628 80.604 298.905C80.8768 299.473 81.1062 300.061 81.2902 300.664C80.7062 300 80.0858 299.307 79.4361 298.671C79.0273 297.752 78.4726 296.62 77.9762 295.752C77.3339 294.555 76.2317 292.956 74.9761 293.562C74.0491 294.036 74.1659 295.022 74.6988 295.81C75.3776 296.795 76.4506 297.197 77.6186 297.759C78.1671 298.007 78.6966 298.294 79.2025 298.62C79.2536 298.657 79.5018 298.905 79.5456 298.942C80.0128 299.409 80.4799 299.912 80.9033 300.401C80.1734 299.847 79.2755 299.16 78.5748 298.701C77.4361 297.971 75.4433 297.241 74.9251 298.825C74.5163 300 75.5966 300.628 76.4579 301.015C77.5383 301.46 78.4215 301.226 79.6332 301.015C80.1514 300.871 80.6868 300.8 81.2245 300.803C81.2245 300.803 81.3048 300.883 81.3121 300.905C81.3171 300.927 81.3171 300.949 81.3121 300.971C82.0912 301.922 82.8057 302.924 83.4508 303.971L83.5895 304.219C82.7063 303.715 81.7573 303.19 80.8522 302.759C79.6989 302.212 77.6696 301.869 77.3558 303.489C77.1222 304.686 78.1514 305.168 79.02 305.38C80.1077 305.642 80.9471 305.256 82.0493 304.818C82.5302 304.54 83.0609 304.359 83.6114 304.285V304.336H83.6479C83.953 304.924 84.2259 305.528 84.4654 306.146C84.6135 306.809 84.728 307.479 84.8085 308.153C84.2381 307.56 83.5898 307.047 82.8815 306.628C81.823 306 79.8814 305.431 79.2317 306.84C78.7573 307.876 79.604 308.518 80.3923 308.832C81.3924 309.226 82.2464 308.92 83.3121 308.635C83.7806 308.455 84.2721 308.342 84.772 308.299C84.9472 309.299 85.0494 310.321 85.2465 311.329C84.6111 310.832 83.9174 310.416 83.1807 310.088C82.1004 309.643 80.3704 309.723 79.9179 311.088C79.5821 312.095 80.3194 312.657 81.1223 312.81C82.1369 313 82.845 312.526 83.8158 312.022C84.0494 311.898 84.8596 311.351 85.2757 311.38C85.4491 312.536 85.8246 313.653 86.3852 314.679C86.3852 314.679 86.4728 314.745 86.3852 314.73C85.5531 314.533 84.9253 314.139 84.0494 313.869C82.9545 313.548 81.3267 313.869 81.0493 315.329C80.8376 316.387 81.7792 316.789 82.6041 316.789C83.626 316.789 84.2173 316.285 85.0932 315.621C85.3122 315.46 86.0056 314.818 86.3998 314.796C87.2461 315.888 88.2271 316.869 89.3196 317.716L89.3853 317.584C88.3084 316.742 87.3486 315.76 86.5312 314.665C87.3654 314.547 88.19 314.369 88.9984 314.132C90.2028 313.716 91.743 312.672 91.4437 311.095C91.2247 309.934 90.2247 309.942 89.4218 310.416C88.4071 311.015 87.9619 312.015 87.3414 313.146C87.1179 313.665 86.8337 314.155 86.4947 314.606C85.9252 313.603 85.5535 312.501 85.3998 311.358C86.2213 311.243 87.0335 311.07 87.8305 310.84C89.0276 310.46 90.5021 309.27 90.1955 307.73C89.9692 306.591 88.9911 306.467 88.2174 307C87.2392 307.635 86.9619 308.591 86.3487 309.708C86.1101 310.289 85.7933 310.834 85.4071 311.329C85.2173 310.387 85.1078 309.372 84.9472 308.409C84.8742 308.409 84.8158 308.46 85.064 308.292C85.8278 307.858 86.5596 307.37 87.2538 306.832C88.0714 306.146 89.1809 304.256 88.2174 302.971C87.4874 302.029 86.5823 302.299 86.0859 303.168C85.4509 304.263 85.6845 305.183 85.502 306.475C85.4509 306.818 85.3487 308.015 84.9618 308.343C84.8231 307.613 84.8012 306.825 84.5968 306.153C84.3617 305.516 84.0811 304.897 83.7574 304.299C84.4154 303.821 85.0243 303.278 85.575 302.679C86.4947 301.613 86.9546 299.81 85.9107 298.606C85.7765 298.414 85.5922 298.263 85.3779 298.169C85.1637 298.075 84.9276 298.041 84.6956 298.072C84.4636 298.103 84.2446 298.197 84.0624 298.344C83.8802 298.491 83.7419 298.685 83.6625 298.905C83.0493 300.073 83.4143 301.095 83.5238 302.423C83.6344 302.983 83.6858 303.553 83.6771 304.124C83.6771 304.088 83.6114 304.015 83.5749 303.956C82.9163 302.885 82.1846 301.861 81.3851 300.89C81.8141 300.146 82.2015 299.378 82.5457 298.591C83.1004 297.248 83.0712 295.233 81.7719 294.372C80.8668 293.693 80.0128 294.233 79.7208 295.255Z" fill="#263238"/>
<path d="M77.4063 94.2069C77.4063 94.2069 78.4209 97.6669 77.983 99.2582C77.5446 100.561 77.2987 101.921 77.253 103.295C77.253 104.755 80.1728 108.061 78.5523 109.361C77.6602 110.122 76.5472 110.578 75.3771 110.66C74.8043 112.828 74.0724 114.95 73.1872 117.01C72.0339 119.463 72.0339 119.894 70.4426 119.894C68.8513 119.894 66.4425 118.777 66.4425 118.777C66.4425 118.777 63.4133 123.646 63.2673 126.967C63.1604 129.213 63.4571 131.46 64.1432 133.602C64.5739 135.339 74.6836 152.515 74.5376 155.544C74.3916 158.574 72.5157 160.741 72.2237 162.041C71.9317 163.34 69.4864 197.808 69.6324 201.005C69.7784 204.202 68.9024 218.904 68.9024 218.904L60.9606 219.772L37.2812 217.458C37.2812 217.458 35.2666 217.028 33.9673 204.618C32.6679 192.209 37.7192 185.129 40.1718 181.954C42.6244 178.778 44.6464 173.005 44.6464 173.005C41.4354 164.131 40.1562 154.674 40.8944 145.267C42.1937 129.938 48.5443 123.332 50.1282 120.295C51.7236 117.263 52.8438 114.003 53.4495 110.631C53.7415 108.178 51.4275 107.711 51.7195 103.266C52.0115 98.8202 56.1941 97.6377 60.092 95.7617C63.9899 93.8858 77.4063 94.2069 77.4063 94.2069Z" fill="white" stroke="#263238" stroke-miterlimit="10" stroke-linecap="round"/>
<path d="M68.8957 218.903C68.8957 218.903 69.757 204.18 69.6256 201.005C69.5526 199.545 70.0417 191.406 70.611 182.939C60.4502 182.523 47.917 179.822 42.2891 178.501C41.6905 179.713 40.9845 180.868 40.1796 181.954C37.727 185.129 32.6758 192.173 33.9751 204.618C35.2744 217.064 37.289 217.458 37.289 217.458L60.9612 219.772L68.8957 218.903Z" fill="#9E9E9E" stroke="#263238" stroke-miterlimit="10" stroke-linecap="round"/>
<path d="M60.9536 219.772L63.6982 202.881" stroke="#263238" stroke-miterlimit="10" stroke-linecap="round"/>
<path d="M47.676 186.282C47.676 186.282 43.6321 195.231 43.3475 204.618C43.0628 214.005 43.7781 216.451 43.7781 216.451" stroke="#263238" stroke-miterlimit="10" stroke-linecap="round"/>
<path d="M46.3767 194.509C46.3767 194.509 54.4572 190.472 55.1798 184.698" stroke="#263238" stroke-miterlimit="10" stroke-linecap="round"/>
<path d="M75.0928 103.813C74.9249 104.63 74.4504 105.229 74.0198 105.141C73.5891 105.054 73.3701 104.324 73.5307 103.499C73.6913 102.674 74.1803 102.083 74.611 102.17C75.0417 102.258 75.2461 102.988 75.0928 103.813Z" fill="#263238"/>
<path d="M72.7935 100.528C73.2442 100.125 73.8204 99.8905 74.4244 99.8639C75.0284 99.8373 75.623 100.02 76.1074 100.382" stroke="#263238" stroke-miterlimit="10" stroke-linecap="round"/>
<path d="M70.1946 111.236C70.9234 111.981 71.8939 112.442 72.9319 112.536" stroke="#263238" stroke-miterlimit="10" stroke-linecap="round"/>
<path d="M49.6981 90.309C49.6981 90.309 44.3549 85.5424 41.7563 84.9658C39.1577 84.3891 35.4058 87.7104 34.5444 91.6083C33.6831 95.5062 35.8438 99.9735 39.5957 100.988C43.3476 102.003 45.0776 100.696 46.3769 99.1121C47.6762 97.5281 49.6981 90.309 49.6981 90.309Z" fill="#263238" stroke="#263238" stroke-miterlimit="10" stroke-linecap="round"/>
<path d="M44.6467 118.164C48.2527 113.112 52.2966 112.82 52.2966 112.82C49.9707 115.007 48.0635 117.599 46.6687 120.47" stroke="#263238" stroke-miterlimit="10" stroke-linecap="round"/>
<path d="M66.4428 118.777C66.4428 118.777 62.5449 117.047 61.0996 115.857C60.1509 115.001 59.4521 113.904 59.0776 112.682C59.0776 112.682 59.5083 117.594 60.5375 119.616C61.4807 121.323 62.5417 122.962 63.7128 124.522L66.4428 118.777Z" fill="#263238" stroke="#263238" stroke-miterlimit="10" stroke-linecap="round"/>
<path d="M66.0998 137.602C65.4575 138.069 64.3553 138.135 62.545 137.361C57.4938 135.171 56.0485 131.872 51.5958 127.835C49.4717 125.908 47.7344 125.784 46.4862 126.178C44.2088 130.215 41.6686 136.237 40.9021 145.296C40.1639 154.703 41.443 164.16 44.654 173.034C43.7246 175.627 42.5617 178.132 41.1795 180.515C51.1359 184.165 65.421 184.749 70.4868 184.851C71.1802 174.45 72.0562 162.814 72.2168 162.07C72.5087 160.77 74.4066 158.603 74.5307 155.573C74.6256 153.303 69.1437 143.354 66.0998 137.602Z" fill="#0FF271" stroke="#263238" stroke-miterlimit="10" stroke-linecap="round"/>
<path d="M59.6543 103.448C59.6543 103.448 62.8296 103.448 63.9829 101.426C65.1362 99.404 65.1435 98.5426 67.4501 97.82C69.7568 97.0973 70.9101 98.8273 76.3993 95.3674C81.8885 91.9074 82.6038 88.8708 81.5965 87.7175C80.5891 86.5642 71.2021 80.4984 61.0996 81.6517C50.9972 82.805 45.7708 94.3527 45.7708 100.995C45.7708 107.638 48.946 112.105 52.2673 112.828C55.5885 113.55 57.0265 106.769 57.3185 106.331C57.6105 105.893 59.6543 103.448 59.6543 103.448Z" fill="#263238" stroke="#263238" stroke-miterlimit="10" stroke-linecap="round"/>
<path d="M60.8074 104.309C60.8074 104.309 57.7781 98.5353 55.3255 100.411C52.8729 102.287 53.1357 105.463 55.0336 107.484C56.9314 109.506 58.6833 108.492 58.6833 108.492" fill="white"/>
<path d="M60.8074 104.309C60.8074 104.309 57.7781 98.5353 55.3255 100.411C52.8729 102.287 53.1357 105.463 55.0336 107.484C56.9314 109.506 58.6833 108.492 58.6833 108.492" stroke="#263238" stroke-miterlimit="10" stroke-linecap="round"/>
<path d="M106.094 153.011H84.5603V181.727H106.094V153.011Z" fill="white" stroke="#263238" stroke-miterlimit="10" stroke-linecap="round"/>
<path d="M96.3231 152.312L75.8022 158.838L84.5042 186.203L105.025 179.678L96.3231 152.312Z" fill="#0FF271" stroke="#263238" stroke-miterlimit="10" stroke-linecap="round"/>
<path d="M94.621 154.771L74.1001 161.296L82.8021 188.662L103.323 182.137L94.621 154.771Z" fill="#0FF271" stroke="#263238" stroke-miterlimit="10" stroke-linecap="round"/>
<path d="M82.4795 193.625L74.9246 161.887L97.2171 157.544L99.2974 165.289L98.5383 167.179L103.451 188.523L82.4795 193.625Z" fill="white" stroke="#263238" stroke-miterlimit="10" stroke-linecap="round"/>
<path d="M79.8369 195.706L72.282 163.968L94.5745 159.625L96.6476 167.369L95.8957 169.26L100.808 190.603L79.8369 195.706Z" fill="white" stroke="#263238" stroke-miterlimit="10" stroke-linecap="round"/>
<path d="M99.6702 173.793C99.6702 173.793 100.4 166.8 102.51 163.398C104.619 159.997 108.743 157.354 108.743 157.354C108.743 157.354 114.028 158.486 117.809 160.946C120.036 162.381 122.068 164.098 123.853 166.055C123.853 166.055 113.838 169.639 111.765 173.8L99.6702 173.793Z" fill="white" stroke="#263238" stroke-miterlimit="10" stroke-linecap="round"/>
<path d="M108.743 157.354C108.743 157.354 109.305 156.975 111.386 156.792C112.962 156.702 114.543 156.763 116.108 156.975C116.108 156.975 113.648 157.924 107.415 163.026C101.181 168.128 100.619 170.012 100.619 170.012C100.619 170.012 100.239 167.559 102.509 163.398C103.969 160.831 106.132 158.734 108.743 157.354Z" fill="white" stroke="#263238" stroke-miterlimit="10" stroke-linecap="round"/>
<path d="M109.685 161.698L115.919 165.099" stroke="#263238" stroke-miterlimit="10" stroke-linecap="round"/>
<path d="M107.232 164.537L111.575 166.99" stroke="#263238" stroke-miterlimit="10" stroke-linecap="round"/>
<path d="M104.02 167.749L107.232 169.442" stroke="#263238" stroke-miterlimit="10" stroke-linecap="round"/>
<path d="M70.8372 172.26V208.078H113.78V172.26H70.8372ZM101.013 179.041C101.013 179.854 100.69 180.634 100.115 181.209C99.5402 181.784 98.7604 182.107 97.9473 182.107H86.6551C85.842 182.107 85.0622 181.784 84.4872 181.209C83.9123 180.634 83.5893 179.854 83.5893 179.041C83.5893 178.228 83.9123 177.448 84.4872 176.873C85.0622 176.298 85.842 175.975 86.6551 175.975H97.9473C98.7604 175.975 99.5402 176.298 100.115 176.873C100.69 177.448 101.013 178.228 101.013 179.041Z" fill="white" stroke="#263238" stroke-miterlimit="10" stroke-linecap="round"/>
<path d="M43.3474 161.749C43.3474 161.749 45.654 184.267 47.3913 184.698C49.1286 185.129 53.4499 184.552 53.4499 184.552C53.4499 184.552 80.8739 177.048 81.4506 177.048C82.0272 177.048 85.2025 179.238 86.5018 179.501C87.4943 179.832 88.575 179.78 89.5311 179.355C90.0717 179.093 90.6608 178.946 91.261 178.924C91.261 178.924 93.137 180.077 94.0056 179.501C94.8743 178.924 95.1589 178.924 95.0129 178.041C94.589 176.796 94.0591 175.589 93.429 174.435L92.5603 172.559C93.597 172.923 94.6581 173.213 95.7356 173.428C96.3122 173.428 98.3342 172.559 97.7575 171.552C97.1809 170.544 95.4509 170.252 92.5603 169.092C89.6697 167.931 87.5091 167.632 86.7865 168.362C86.0638 169.092 85.3266 169.515 85.0565 169.946C84.7864 170.376 81.1586 171.099 80.0053 171.406C78.852 171.712 56.647 172.559 56.647 172.559L55.6397 160.88L43.3474 161.749Z" fill="white" stroke="#263238" stroke-miterlimit="10" stroke-linecap="round"/>
<path d="M46.8073 130.456C46.8073 130.456 43.3473 131.47 42.194 136.091C41.0407 140.712 40.1721 149.048 40.318 151.624C40.464 154.201 41.3254 160.719 41.3254 160.719L56.6542 159.851C56.6542 159.851 56.0776 140.222 56.0776 140.653" fill="#0FF271"/>
<path d="M46.8073 130.456C46.8073 130.456 43.3473 131.47 42.194 136.091C41.0407 140.712 40.1721 149.048 40.318 151.624C40.464 154.201 41.3254 160.719 41.3254 160.719L56.6542 159.851C56.6542 159.851 56.0776 140.222 56.0776 140.653" stroke="#263238" stroke-miterlimit="10" stroke-linecap="round"/>
<path d="M40.3181 158.289L41.3254 163.194L57.9244 161.894L57.6324 157.128L40.3181 158.289Z" fill="white" stroke="#263238" stroke-miterlimit="10" stroke-linecap="round"/>
<path d="M67.304 219.772C67.304 219.772 65.282 240.678 63.4134 253.685C61.5447 266.693 58.0775 281.978 57.5008 288.036C56.9242 294.095 56.4789 303.913 56.6249 304.913C56.7709 305.913 64.9973 311.409 66.8441 312.278C68.6909 313.147 72.9027 312.855 72.18 314.585C71.4574 316.315 70.7201 315.884 67.5668 316.315C64.4134 316.745 58.6176 316.03 55.727 316.03C52.8365 316.03 48.0772 316.461 46.9239 315.884C45.7706 315.307 47.0699 311.986 47.7925 309.533C48.5152 307.081 48.6612 305.489 48.6612 301.022C48.6612 296.555 49.6685 284.708 48.2232 273.284C46.7779 261.861 48.9531 249.758 49.2378 248.174C49.5225 246.59 51.7342 240.838 51.7342 240.123C51.7342 239.407 52.3109 219.48 52.3109 219.48L67.304 219.772Z" fill="white" stroke="#263238" stroke-miterlimit="10" stroke-linecap="round"/>
<path d="M67.5959 316.322C70.7712 315.891 71.4938 316.322 72.2092 314.592C72.9245 312.862 68.7492 313.132 66.8733 312.285C66.0484 311.864 65.2467 311.398 64.4717 310.891L63.4133 313.439C63.4133 313.439 53.1941 312.49 47.4202 310.862C46.7341 313.052 46.0041 315.417 46.9604 315.891C48.1137 316.468 52.8802 316.037 55.7635 316.037C58.6468 316.037 64.4207 316.76 67.5959 316.322Z" fill="#263238" stroke="#263238" stroke-miterlimit="10" stroke-linecap="round"/>
<path d="M61.2454 216.881L71.2018 215.874L71.3478 221.502L60.6687 222.079L61.2454 216.881Z" fill="white" stroke="#263238" stroke-miterlimit="10" stroke-linecap="round"/>
<path d="M36.2741 217.027L38.296 252.357C38.296 252.357 31.9455 262.459 29.0549 268.956C27.1133 273.335 23.8139 282.204 20.3978 288.876C18.9461 291.526 17.2554 294.038 15.3466 296.38C14.0473 297.241 11.5946 298.11 9.71868 299.117C7.84272 300.124 6.7989 300.854 7.12008 303.161C7.44125 305.468 12.3173 310.263 13.7772 314.307C14.5071 316.344 15.2371 317.19 18.3904 317.336C21.5438 317.482 24.6023 318.066 24.3103 316.468C24.0183 314.869 21.5657 312.716 20.989 311.271C20.4124 309.825 20.7044 307.234 20.989 304.059C21.2956 300.694 21.281 300.591 21.719 299.869C22.157 299.146 41.2012 276.511 45.8072 267.401C50.4131 258.291 51.2891 255.561 51.873 253.831C52.457 252.101 58.9389 220.349 58.9389 220.349L36.2741 217.027Z" fill="white" stroke="#263238" stroke-miterlimit="10" stroke-linecap="round"/>
<path d="M24.2958 316.468C24.1133 315.49 23.1133 314.278 22.23 313.168C20.0402 313.263 19.4709 313.665 17.5146 311.709C15.8138 310.022 12.7846 301.745 11.5874 298.256C10.9524 298.548 10.3246 298.84 9.74798 299.146C7.87202 300.161 6.8282 300.883 7.14937 303.19C7.47055 305.497 12.3174 310.263 13.7773 314.307C14.5072 316.344 15.2372 317.19 18.3905 317.336C21.5439 317.482 24.5878 318.052 24.2958 316.468Z" fill="#263238" stroke="#263238" stroke-miterlimit="10" stroke-linecap="round"/>
<path d="M34.2524 212.845L35.1211 218.904L60.6692 222.079L61.2458 216.882L34.2524 212.845Z" fill="white" stroke="#263238" stroke-miterlimit="10" stroke-linecap="round"/>
<path d="M1.85767 317.555H353.502" stroke="#263238" stroke-miterlimit="10" stroke-linecap="round"/>
</svg>
